<?xml version="1.0" encoding="utf-8"?>
<!-- Generator: Adobe Illustrator 22.0.1, SVG Export Plug-In . SVG Version: 6.00 Build 0)  -->
<svg version="1.1" id="Capa_1" xmlns="http://www.w3.org/2000/svg" xmlns:xlink="http://www.w3.org/1999/xlink" x="0px" y="0px"
	 viewBox="0 0 456.8 243.5" style="enable-background:new 0 0 456.8 243.5;" xml:space="preserve">
<style type="text/css">
	.st0{fill:#FFFFFF;}
	.st1{fill-rule:evenodd;clip-rule:evenodd;fill:none;}
	.st2{fill-rule:evenodd;clip-rule:evenodd;fill:none;stroke:#FFFFFF;stroke-miterlimit:10;}
	.st3{fill-rule:evenodd;clip-rule:evenodd;fill:#FFFFFF;}
</style>
<g>
	<g>
		<g>
			<path class="st0" d="M63.6,215.3H49.1v-7.1c-4.9,5.9-11.7,8.8-20.4,8.8c-5.4,0-10.1-1.2-14.2-3.6c-4.5-2.7-7.5-6.4-8.9-11.2
				c-0.7-2.3-1-6.2-1-11.5v-30c0-3.8-0.1-6.3-0.4-7.4c-0.6-2.7-2-4.6-4.2-5.8h19.6c-2.2,1.2-3.6,3.2-4.2,5.8
				c-0.3,1.2-0.4,3.7-0.4,7.4v30c0,5.9,1.2,10.3,3.6,13.2c3.2,3.8,7.6,5.7,13.1,5.7c6.6,0,11.6-2.4,15-7.3c1.3-2,2-4.6,2-8v-33.5
				c0-3.7-0.1-6.2-0.4-7.4c-0.6-2.6-2-4.5-4.2-5.8h19.6c-2.2,1.2-3.6,3.2-4.2,5.8c-0.3,1.2-0.4,3.7-0.4,7.4v41.5
				c0,3.7,0.1,6.2,0.4,7.4C60,212.1,61.4,214,63.6,215.3z"/>
			<path class="st0" d="M136.9,147.3c-2.2,1.4-3.7,2.9-4.4,4.5c-0.7,1.6-1.1,4.1-1.1,7.6v59.1c-5-1.6-9.7-5.2-14.2-10.8L81,161.9
				v41.3c0,3.4,0.4,5.9,1.1,7.6c0.7,1.7,2.2,3.2,4.3,4.5H68c2.2-1.4,3.7-2.9,4.4-4.5c0.7-1.6,1.1-4.1,1.1-7.6v-43.7
				c0-3.4-0.4-5.9-1.1-7.6c-0.7-1.7-2.2-3.2-4.2-4.5h15.1c0.1,0.4,0.9,1.7,2.4,3.8l38.2,48.7v-40.4c0-3.4-0.4-5.9-1.1-7.5
				c-0.7-1.6-2.2-3.2-4.4-4.6H136.9z"/>
			<path class="st0" d="M209.5,215.3h-21.4c2.5-1.5,3.7-2.9,3.7-4.1c0-0.8-0.6-2.7-1.8-5.8l-6.1-15.7h-26.1l-5.9,15.7
				c-0.8,2.1-1.2,3.8-1.2,5.3c0,1.8,1.2,3.3,3.7,4.6h-19c2.3-1.5,4.1-3.1,5.2-4.7c1.1-1.6,2.6-4.7,4.4-9.2l18.2-45.4
				c0.8-2,1.2-3.5,1.2-4.7c0-1.6-1-3-3.1-4h16.4l21.7,54.1c1.6,4.1,3.1,7.1,4.5,9C205.4,212.3,207.2,213.9,209.5,215.3z M181.3,183
				l-10.5-27l-10.6,27H181.3z"/>
			<path class="st0" d="M273.5,180.7c0,6.8-1.8,13-5.4,18.7c-3.6,5.7-8.4,9.9-14.4,12.5c-5.1,2.3-14.2,3.4-27.3,3.4h-16.6
				c2.1-1.9,3.3-3.4,3.7-4.6c0.6-1.8,0.9-4.9,0.9-9.1v-41.1c0-3.8-0.1-6.3-0.4-7.4c-0.6-2.7-2-4.6-4.2-5.8h10.4c2.6,0,4.9,0,6.9,0
				c2,0,4.7,0,8.1,0c11,0,19.9,2.8,26.8,8.5C269.7,162.2,273.5,170.5,273.5,180.7z M262.2,181.8c0-7.9-2.4-14.5-7.2-19.6
				c-4.8-5.2-11.7-7.7-20.7-7.7c-2.7,0-5.8,0.4-9.5,1.1v51.4c2.4,0.5,5,0.7,7.6,0.7c8.6,0,15.1-1.7,19.6-5
				C258.8,197.7,262.2,190.7,262.2,181.8z"/>
			<path class="st0" d="M325.4,201.8l-4.8,13.5h-43c2.2-1.2,3.6-3.1,4.2-5.8c0.3-1.2,0.4-3.7,0.4-7.5v-41.4c0-3.7-0.1-6.2-0.4-7.4
				c-0.6-2.7-2-4.6-4.2-5.8h34.3c1.5,0,2.8-0.2,3.9-0.6v12c-1.8-1.8-3.7-2.9-5.8-3.4c-1.5-0.5-3.8-0.7-6.8-0.7
				c-4.3,0-7.9,0.2-10.7,0.7v19.3h13.8c1.4,0,2.5-0.2,3.5-0.7v11c-1.4-1.8-4.1-2.7-8.1-2.7h-9.2v24.5c4.4,0.7,8.6,1.1,12.7,1.1
				C313.5,207.8,320.2,205.8,325.4,201.8z"/>
			<path class="st0" d="M385.6,201.9l-5.2,12c-5,2-10.4,3-16,3c-11.8,0-21.3-3.2-28.4-9.7c-7.1-6.5-10.7-15.1-10.7-25.8
				c0-10.3,3.5-18.8,10.4-25.6c6.9-6.8,15.6-10.2,26.2-10.2c5.2,0,11.3,0.9,18.6,2.6v11.8c-6.6-3.8-12.8-5.7-18.8-5.7
				c-7.2,0-13.2,2.4-17.7,7.1c-4.6,4.7-6.9,10.8-6.9,18.1c0,8.1,2.5,14.9,7.5,20.5c5,5.6,11.2,8.4,18.5,8.4
				C369.6,208.6,377.2,206.4,385.6,201.9z"/>
			<path class="st0" d="M456.8,215.3h-21.4c2.5-1.5,3.7-2.9,3.7-4.1c0-0.8-0.6-2.7-1.8-5.8l-6.1-15.7h-26.1l-5.9,15.7
				c-0.8,2.1-1.2,3.8-1.2,5.3c0,1.8,1.2,3.3,3.7,4.6h-19c2.3-1.5,4.1-3.1,5.2-4.7c1.1-1.6,2.6-4.7,4.4-9.2l18.2-45.4
				c0.8-2,1.2-3.5,1.2-4.7c0-1.6-1-3-3.1-4h16.4l21.7,54.1c1.6,4.1,3.1,7.1,4.5,9C452.7,212.3,454.5,213.9,456.8,215.3z M428.7,183
				l-10.5-27l-10.6,27H428.7z"/>
		</g>
		<g>
			<path class="st0" d="M12.5,242.8H9.6v-1.4c-1,1.1-2.3,1.7-4,1.7c-1.1,0-2-0.2-2.8-0.7c-0.9-0.5-1.5-1.3-1.7-2.2
				C1,239.8,0.9,239,0.9,238v-5.9c0-0.7,0-1.2-0.1-1.5c-0.1-0.5-0.4-0.9-0.8-1.1h3.8c-0.4,0.2-0.7,0.6-0.8,1.1
				c-0.1,0.2-0.1,0.7-0.1,1.5v5.9c0,1.2,0.2,2,0.7,2.6c0.6,0.7,1.5,1.1,2.6,1.1c1.3,0,2.3-0.5,2.9-1.4c0.3-0.4,0.4-0.9,0.4-1.6v-6.6
				c0-0.7,0-1.2-0.1-1.5c-0.1-0.5-0.4-0.9-0.8-1.1h3.8c-0.4,0.2-0.7,0.6-0.8,1.1c0,0.2-0.1,0.7-0.1,1.5v8.1c0,0.7,0,1.2,0.1,1.5
				C11.8,242.2,12,242.6,12.5,242.8z"/>
			<path class="st0" d="M27.7,229.5c-0.4,0.3-0.7,0.6-0.9,0.9c-0.1,0.3-0.2,0.8-0.2,1.5v11.6c-1-0.3-1.9-1-2.8-2.1l-7.1-9v8.1
				c0,0.7,0.1,1.2,0.2,1.5c0.1,0.3,0.4,0.6,0.8,0.9h-3.6c0.4-0.3,0.7-0.6,0.9-0.9c0.1-0.3,0.2-0.8,0.2-1.5v-8.5
				c0-0.7-0.1-1.2-0.2-1.5c-0.1-0.3-0.4-0.6-0.8-0.9h2.9c0,0.1,0.2,0.3,0.5,0.7l7.5,9.5v-7.9c0-0.7-0.1-1.2-0.2-1.5
				c-0.1-0.3-0.4-0.6-0.8-0.9H27.7z"/>
			<path class="st0" d="M33.3,242.8h-3.8c0.4-0.2,0.7-0.6,0.8-1.1c0-0.2,0.1-0.7,0.1-1.5v-8.1c0-0.7,0-1.2-0.1-1.5
				c-0.1-0.5-0.4-0.9-0.8-1.1h3.8c-0.4,0.2-0.7,0.6-0.8,1.1c-0.1,0.2-0.1,0.7-0.1,1.5v8.1c0,0.7,0,1.2,0.1,1.5
				C32.6,242.2,32.9,242.6,33.3,242.8z"/>
			<path class="st0" d="M46.7,229.5l-5.4,13.9c-0.9-0.6-1.5-1.1-1.8-1.4c-0.2-0.3-0.5-0.8-0.8-1.7L36,233c-0.5-1.4-0.8-2.2-1-2.5
				c-0.2-0.3-0.4-0.6-0.8-1h2.9c0,0.1,0,0.1,0,0.2c0,0.3,0.2,0.8,0.5,1.6l3.3,9l2.8-7.5c0.4-1.1,0.6-1.8,0.6-2.3
				c0-0.6-0.2-0.9-0.7-1.1H46.7z"/>
			<path class="st0" d="M57.2,240.2l-0.9,2.6h-8.4c0.4-0.2,0.7-0.6,0.8-1.1c0-0.2,0.1-0.7,0.1-1.5v-8.1c0-0.7,0-1.2-0.1-1.5
				c-0.1-0.5-0.4-0.9-0.8-1.1h6.7c0.3,0,0.6,0,0.8-0.1v2.3c-0.4-0.3-0.7-0.6-1.1-0.7c-0.3-0.1-0.7-0.1-1.3-0.1c-0.8,0-1.5,0-2.1,0.1
				v3.8h2.7c0.3,0,0.5,0,0.7-0.1v2.1c-0.3-0.4-0.8-0.5-1.6-0.5h-1.8v4.8c0.8,0.1,1.7,0.2,2.5,0.2C54.9,241.3,56.2,241,57.2,240.2z"
				/>
			<path class="st0" d="M70.3,242.8c-1,0.1-1.6,0.1-1.9,0.1c-0.6,0-1.1-0.1-1.5-0.4c-0.4-0.3-1-0.8-1.6-1.6c-1.3-1.5-2.5-3.2-3.5-5
				c2.2-0.4,3.4-1.3,3.4-2.9c0-0.7-0.2-1.2-0.7-1.6c-0.5-0.4-1-0.6-1.8-0.6c-0.4,0-0.9,0.1-1.4,0.2v9.3c0,0.7,0,1.2,0.1,1.4
				c0.1,0.5,0.4,0.9,0.8,1.1h-3.8c0.4-0.2,0.7-0.6,0.8-1.1c0-0.2,0.1-0.7,0.1-1.5v-8.1c0-0.7,0-1.2-0.1-1.5
				c-0.1-0.5-0.4-0.9-0.8-1.1h2.9c0.2,0,0.5,0,0.9,0c0.4,0,0.7,0,0.9,0c1.3,0,2.3,0.3,3,0.8c0.9,0.7,1.3,1.5,1.3,2.6
				c0,0.8-0.3,1.5-0.9,2.1c-0.6,0.6-1.4,1.1-2.4,1.3c1.5,2,2.7,3.5,3.6,4.4C68.6,241.7,69.5,242.4,70.3,242.8z"/>
			<path class="st0" d="M79.8,238.9c0,1-0.4,1.9-1.2,2.7c-1,1-2.4,1.5-4.2,1.5c-1.2,0-2.4-0.2-3.6-0.6l-0.6-2.5
				c1.4,1.1,2.8,1.6,4.4,1.6c0.8,0,1.6-0.2,2.1-0.6c0.6-0.4,0.9-0.9,0.9-1.5c0-0.6-0.2-1-0.7-1.4c-0.4-0.3-1.2-0.8-2.6-1.4
				c-1.3-0.6-2.3-1.2-2.8-1.6c-0.7-0.6-1.1-1.4-1.1-2.3c0-1.1,0.5-2,1.4-2.6c0.9-0.7,2.1-1,3.7-1c1,0,2,0.1,3.1,0.4v2.3
				c-0.9-0.9-2-1.3-3.2-1.3c-0.8,0-1.4,0.2-1.9,0.5c-0.5,0.3-0.7,0.8-0.7,1.4c0,0.5,0.2,0.9,0.6,1.3c0.4,0.3,1.2,0.8,2.4,1.3
				c1.4,0.7,2.4,1.2,2.9,1.6C79.5,237.3,79.8,238,79.8,238.9z"/>
			<path class="st0" d="M85.4,242.8h-3.8c0.4-0.2,0.7-0.6,0.8-1.1c0.1-0.2,0.1-0.7,0.1-1.5v-8.1c0-0.7,0-1.2-0.1-1.5
				c-0.1-0.5-0.4-0.9-0.8-1.1h3.8c-0.4,0.2-0.7,0.6-0.8,1.1c-0.1,0.2-0.1,0.7-0.1,1.5v8.1c0,0.7,0,1.2,0.1,1.5
				C84.7,242.2,84.9,242.6,85.4,242.8z"/>
			<path class="st0" d="M99.8,236.1c0,1.3-0.3,2.5-1.1,3.6c-0.7,1.1-1.6,1.9-2.8,2.4c-1,0.4-2.8,0.7-5.3,0.7h-3.2
				c0.4-0.4,0.7-0.7,0.7-0.9c0.1-0.3,0.2-0.9,0.2-1.8v-8c0-0.7,0-1.2-0.1-1.5c-0.1-0.5-0.4-0.9-0.8-1.1h2c0.5,0,1,0,1.3,0
				c0.4,0,0.9,0,1.6,0c2.2,0,3.9,0.6,5.2,1.7C99,232.4,99.8,234.1,99.8,236.1z M97.6,236.3c0-1.5-0.5-2.8-1.4-3.8
				c-0.9-1-2.3-1.5-4-1.5c-0.5,0-1.1,0.1-1.9,0.2v10.1c0.5,0.1,1,0.1,1.5,0.1c1.7,0,3-0.3,3.8-1C96.9,239.4,97.6,238,97.6,236.3z"/>
			<path class="st0" d="M114.2,242.8H110c0.5-0.3,0.7-0.6,0.7-0.8c0-0.2-0.1-0.5-0.3-1.1l-1.2-3.1h-5.1l-1.1,3.1
				c-0.1,0.4-0.2,0.8-0.2,1c0,0.3,0.2,0.6,0.7,0.9h-3.7c0.5-0.3,0.8-0.6,1-0.9c0.2-0.3,0.5-0.9,0.9-1.8l3.6-8.9
				c0.2-0.4,0.2-0.7,0.2-0.9c0-0.3-0.2-0.6-0.6-0.8h3.2l4.2,10.6c0.3,0.8,0.6,1.4,0.9,1.8C113.4,242.2,113.7,242.6,114.2,242.8z
				 M108.7,236.5l-2-5.3l-2.1,5.3H108.7z"/>
			<path class="st0" d="M127.7,236.1c0,1.3-0.4,2.5-1.1,3.6c-0.7,1.1-1.6,1.9-2.8,2.4c-1,0.4-2.8,0.7-5.3,0.7h-3.3
				c0.4-0.4,0.7-0.7,0.7-0.9c0.1-0.3,0.2-0.9,0.2-1.8v-8c0-0.7,0-1.2-0.1-1.5c-0.1-0.5-0.4-0.9-0.8-1.1h2c0.5,0,1,0,1.4,0
				c0.4,0,0.9,0,1.6,0c2.2,0,3.9,0.6,5.2,1.7C126.9,232.4,127.7,234.1,127.7,236.1z M125.4,236.3c0-1.5-0.5-2.8-1.4-3.8
				c-0.9-1-2.3-1.5-4-1.5c-0.5,0-1.1,0.1-1.9,0.2v10.1c0.5,0.1,1,0.1,1.5,0.1c1.7,0,3-0.3,3.8-1C124.8,239.4,125.4,238,125.4,236.3z
				"/>
			<path class="st0" d="M148,242.8h-4.2c0.5-0.3,0.7-0.6,0.7-0.8c0-0.2-0.1-0.5-0.3-1.1l-1.2-3.1h-5.1l-1.2,3.1
				c-0.2,0.4-0.2,0.8-0.2,1c0,0.3,0.2,0.6,0.7,0.9h-3.7c0.5-0.3,0.8-0.6,1-0.9c0.2-0.3,0.5-0.9,0.9-1.8l3.6-8.9
				c0.2-0.4,0.2-0.7,0.2-0.9c0-0.3-0.2-0.6-0.6-0.8h3.2l4.2,10.6c0.3,0.8,0.6,1.4,0.9,1.8C147.2,242.2,147.6,242.6,148,242.8z
				 M142.5,236.5l-2-5.3l-2.1,5.3H142.5z"/>
			<path class="st0" d="M161.5,236.1c0,1.3-0.3,2.5-1,3.6c-0.7,1.1-1.6,1.9-2.8,2.4c-1,0.4-2.8,0.7-5.3,0.7h-3.2
				c0.4-0.4,0.6-0.7,0.7-0.9c0.1-0.3,0.2-0.9,0.2-1.8v-8c0-0.7,0-1.2-0.1-1.5c-0.1-0.5-0.4-0.9-0.8-1.1h2c0.5,0,1,0,1.3,0
				c0.4,0,0.9,0,1.6,0c2.2,0,3.9,0.6,5.2,1.7C160.8,232.4,161.5,234.1,161.5,236.1z M159.3,236.3c0-1.5-0.5-2.8-1.4-3.8
				c-0.9-1-2.3-1.5-4-1.5c-0.5,0-1.1,0.1-1.9,0.2v10.1c0.5,0.1,1,0.1,1.5,0.1c1.7,0,3-0.3,3.8-1C158.6,239.4,159.3,238,159.3,236.3z
				"/>
			<path class="st0" d="M174,229.5l-5.4,13.9c-0.9-0.6-1.5-1.1-1.8-1.4c-0.2-0.3-0.5-0.8-0.8-1.7l-2.7-7.4c-0.5-1.4-0.8-2.2-1-2.5
				c-0.2-0.3-0.4-0.6-0.8-1h2.9c0,0.1,0,0.1,0,0.2c0,0.3,0.2,0.8,0.5,1.6l3.3,9l2.8-7.5c0.4-1.1,0.6-1.8,0.6-2.3
				c0-0.6-0.2-0.9-0.7-1.1H174z"/>
			<path class="st0" d="M184.5,240.2l-0.9,2.6h-8.4c0.4-0.2,0.7-0.6,0.8-1.1c0-0.2,0.1-0.7,0.1-1.5v-8.1c0-0.7,0-1.2-0.1-1.5
				c-0.1-0.5-0.4-0.9-0.8-1.1h6.7c0.3,0,0.6,0,0.8-0.1v2.3c-0.4-0.3-0.7-0.6-1.1-0.7c-0.3-0.1-0.7-0.1-1.3-0.1c-0.8,0-1.5,0-2.1,0.1
				v3.8h2.7c0.3,0,0.5,0,0.7-0.1v2.1c-0.3-0.4-0.8-0.5-1.6-0.5h-1.8v4.8c0.8,0.1,1.7,0.2,2.5,0.2C182.2,241.3,183.5,241,184.5,240.2
				z"/>
			<path class="st0" d="M199,229.5c-0.4,0.3-0.7,0.6-0.9,0.9c-0.1,0.3-0.2,0.8-0.2,1.5v11.6c-1-0.3-1.9-1-2.8-2.1l-7.1-9v8.1
				c0,0.7,0.1,1.2,0.2,1.5c0.1,0.3,0.4,0.6,0.8,0.9h-3.6c0.4-0.3,0.7-0.6,0.9-0.9c0.1-0.3,0.2-0.8,0.2-1.5v-8.5
				c0-0.7-0.1-1.2-0.2-1.5c-0.2-0.3-0.4-0.6-0.8-0.9h2.9c0,0.1,0.2,0.3,0.5,0.7l7.5,9.5v-7.9c0-0.7-0.1-1.2-0.2-1.5
				c-0.2-0.3-0.4-0.6-0.9-0.9H199z"/>
			<path class="st0" d="M210.1,229.4l-0.6,2.4c-0.2-0.3-0.4-0.6-0.8-0.7c-0.2-0.1-0.6-0.1-1.1-0.1c-0.1,0-0.3,0-0.5,0
				c-0.2,0-0.5,0-0.9,0h-0.3v9.3c0,0.7,0.1,1.1,0.2,1.5c0.1,0.3,0.4,0.6,0.9,0.9h-4c0.4-0.2,0.7-0.6,0.8-1.1
				c0.1-0.2,0.1-0.7,0.1-1.5v-9.1c-0.4,0-0.9-0.1-1.6-0.1c-0.6,0-1.1,0-1.4,0.1c-0.4,0.1-0.8,0.3-1.2,0.7l0.7-2.4
				c0.3,0.1,0.6,0.1,1,0.1h7.6c0.2,0,0.4,0,0.8,0C209.8,229.5,209.9,229.5,210.1,229.4z"/>
			<path class="st0" d="M214.8,242.8H211c0.4-0.2,0.7-0.6,0.8-1.1c0.1-0.2,0.1-0.7,0.1-1.5v-8.1c0-0.7,0-1.2-0.1-1.5
				c-0.1-0.5-0.4-0.9-0.8-1.1h3.8c-0.4,0.2-0.7,0.6-0.8,1.1c0,0.2-0.1,0.7-0.1,1.5v8.1c0,0.7,0,1.2,0.1,1.5
				C214.1,242.2,214.4,242.6,214.8,242.8z"/>
			<path class="st0" d="M226.2,238.9c0,1-0.4,1.9-1.2,2.7c-1,1-2.4,1.5-4.2,1.5c-1.2,0-2.4-0.2-3.6-0.6l-0.6-2.5
				c1.4,1.1,2.8,1.6,4.4,1.6c0.9,0,1.6-0.2,2.2-0.6c0.6-0.4,0.9-0.9,0.9-1.5c0-0.6-0.2-1-0.7-1.4c-0.4-0.3-1.2-0.8-2.6-1.4
				c-1.3-0.6-2.3-1.2-2.8-1.6c-0.7-0.6-1.1-1.4-1.1-2.3c0-1.1,0.5-2,1.4-2.6c0.9-0.7,2.1-1,3.7-1c1,0,2,0.1,3.1,0.4v2.3
				c-0.9-0.9-2-1.3-3.2-1.3c-0.8,0-1.4,0.2-1.9,0.5c-0.5,0.3-0.7,0.8-0.7,1.4c0,0.5,0.2,0.9,0.6,1.3c0.4,0.3,1.2,0.8,2.4,1.3
				c1.4,0.7,2.4,1.2,2.9,1.6C225.8,237.3,226.2,238,226.2,238.9z"/>
			<path class="st0" d="M237.2,229.4l-0.7,2.4c-0.2-0.3-0.4-0.6-0.8-0.7c-0.2-0.1-0.6-0.1-1.1-0.1c-0.1,0-0.3,0-0.5,0
				c-0.2,0-0.5,0-0.9,0h-0.3v9.3c0,0.7,0.1,1.1,0.2,1.5c0.1,0.3,0.4,0.6,0.9,0.9h-4c0.4-0.2,0.7-0.6,0.8-1.1
				c0.1-0.2,0.1-0.7,0.1-1.5v-9.1c-0.4,0-0.9-0.1-1.6-0.1c-0.6,0-1.1,0-1.4,0.1c-0.4,0.1-0.8,0.3-1.3,0.7l0.8-2.4
				c0.3,0.1,0.6,0.1,1,0.1h7.6c0.2,0,0.4,0,0.8,0C236.9,229.5,237,229.5,237.2,229.4z"/>
			<path class="st0" d="M250.8,242.8h-4.2c0.5-0.3,0.7-0.6,0.7-0.8c0-0.2-0.1-0.5-0.4-1.1l-1.2-3.1h-5.1l-1.2,3.1
				c-0.2,0.4-0.2,0.8-0.2,1c0,0.3,0.2,0.6,0.7,0.9h-3.7c0.5-0.3,0.8-0.6,1-0.9c0.2-0.3,0.5-0.9,0.9-1.8l3.6-8.9
				c0.2-0.4,0.2-0.7,0.2-0.9c0-0.3-0.2-0.6-0.6-0.8h3.2l4.2,10.6c0.3,0.8,0.6,1.4,0.9,1.8C250,242.2,250.4,242.6,250.8,242.8z
				 M245.3,236.5l-2-5.3l-2.1,5.3H245.3z"/>
			<path class="st0" d="M269.3,236.1c0,1.3-0.4,2.5-1,3.6c-0.7,1.1-1.6,1.9-2.8,2.4c-1,0.4-2.8,0.7-5.3,0.7h-3.2
				c0.4-0.4,0.6-0.7,0.7-0.9c0.1-0.3,0.2-0.9,0.2-1.8v-8c0-0.7,0-1.2-0.1-1.5c-0.1-0.5-0.4-0.9-0.8-1.1h2c0.5,0,1,0,1.4,0
				c0.4,0,0.9,0,1.6,0c2.1,0,3.9,0.6,5.2,1.7C268.5,232.4,269.3,234.1,269.3,236.1z M267.1,236.3c0-1.5-0.5-2.8-1.4-3.8
				c-0.9-1-2.3-1.5-4-1.5c-0.5,0-1.1,0.1-1.9,0.2v10.1c0.5,0.1,1,0.1,1.5,0.1c1.7,0,3-0.3,3.8-1C266.4,239.4,267.1,238,267.1,236.3z
				"/>
			<path class="st0" d="M280.4,240.2l-0.9,2.6H271c0.4-0.2,0.7-0.6,0.8-1.1c0.1-0.2,0.1-0.7,0.1-1.5v-8.1c0-0.7,0-1.2-0.1-1.5
				c-0.1-0.5-0.4-0.9-0.8-1.1h6.7c0.3,0,0.5,0,0.8-0.1v2.3c-0.4-0.3-0.7-0.6-1.1-0.7c-0.3-0.1-0.7-0.1-1.3-0.1c-0.8,0-1.5,0-2.1,0.1
				v3.8h2.7c0.3,0,0.5,0,0.7-0.1v2.1c-0.3-0.4-0.8-0.5-1.6-0.5H274v4.8c0.9,0.1,1.7,0.2,2.5,0.2C278.1,241.3,279.4,241,280.4,240.2z
				"/>
			<path class="st0" d="M298.1,240.2l-1,2.3c-1,0.4-2,0.6-3.1,0.6c-2.3,0-4.2-0.6-5.6-1.9c-1.4-1.3-2.1-2.9-2.1-5c0-2,0.7-3.7,2-5
				c1.4-1.3,3.1-2,5.1-2c1,0,2.2,0.2,3.6,0.5v2.3c-1.3-0.7-2.5-1.1-3.7-1.1c-1.4,0-2.6,0.5-3.5,1.4c-0.9,0.9-1.3,2.1-1.3,3.5
				c0,1.6,0.5,2.9,1.5,4c1,1.1,2.2,1.6,3.6,1.6C295,241.5,296.5,241.1,298.1,240.2z"/>
			<path class="st0" d="M308.7,240.2l-0.9,2.6h-8.4c0.4-0.2,0.7-0.6,0.8-1.1c0.1-0.2,0.1-0.7,0.1-1.5v-8.1c0-0.7,0-1.2-0.1-1.5
				c-0.1-0.5-0.4-0.9-0.8-1.1h6.7c0.3,0,0.6,0,0.8-0.1v2.3c-0.4-0.3-0.7-0.6-1.1-0.7c-0.3-0.1-0.7-0.1-1.3-0.1c-0.8,0-1.5,0-2.1,0.1
				v3.8h2.7c0.3,0,0.5,0,0.7-0.1v2.1c-0.3-0.4-0.8-0.5-1.6-0.5h-1.8v4.8c0.9,0.1,1.7,0.2,2.5,0.2C306.4,241.3,307.7,241,308.7,240.2
				z"/>
			<path class="st0" d="M323.2,229.5c-0.4,0.3-0.7,0.6-0.9,0.9c-0.1,0.3-0.2,0.8-0.2,1.5v11.6c-1-0.3-1.9-1-2.8-2.1l-7.1-9v8.1
				c0,0.7,0.1,1.2,0.2,1.5c0.1,0.3,0.4,0.6,0.8,0.9h-3.6c0.4-0.3,0.7-0.6,0.9-0.9c0.1-0.3,0.2-0.8,0.2-1.5v-8.5
				c0-0.7-0.1-1.2-0.2-1.5c-0.2-0.3-0.4-0.6-0.8-0.9h2.9c0,0.1,0.2,0.3,0.5,0.7l7.5,9.5v-7.9c0-0.7-0.1-1.2-0.2-1.5
				c-0.1-0.3-0.4-0.6-0.8-0.9H323.2z"/>
			<path class="st0" d="M334.4,229.4l-0.7,2.4c-0.2-0.3-0.4-0.6-0.8-0.7c-0.2-0.1-0.6-0.1-1.1-0.1c-0.1,0-0.3,0-0.5,0
				c-0.2,0-0.5,0-0.9,0h-0.3v9.3c0,0.7,0.1,1.1,0.2,1.5c0.1,0.3,0.4,0.6,0.9,0.9h-4c0.4-0.2,0.7-0.6,0.8-1.1
				c0.1-0.2,0.1-0.7,0.1-1.5v-9.1c-0.4,0-0.9-0.1-1.6-0.1c-0.6,0-1.1,0-1.4,0.1c-0.4,0.1-0.8,0.3-1.2,0.7l0.7-2.4
				c0.3,0.1,0.6,0.1,1,0.1h7.6c0.2,0,0.4,0,0.8,0C334,229.5,334.2,229.5,334.4,229.4z"/>
			<path class="st0" d="M347.1,242.8c-1,0.1-1.6,0.1-1.9,0.1c-0.6,0-1.1-0.1-1.5-0.4c-0.4-0.3-0.9-0.8-1.6-1.6
				c-1.3-1.5-2.5-3.2-3.5-5c2.2-0.4,3.4-1.3,3.4-2.9c0-0.7-0.2-1.2-0.7-1.6c-0.5-0.4-1-0.6-1.8-0.6c-0.4,0-0.9,0.1-1.4,0.2v9.3
				c0,0.7,0,1.2,0.1,1.4c0.1,0.5,0.4,0.9,0.8,1.1h-3.8c0.4-0.2,0.7-0.6,0.8-1.1c0.1-0.2,0.1-0.7,0.1-1.5v-8.1c0-0.7,0-1.2-0.1-1.5
				c-0.1-0.5-0.4-0.9-0.8-1.1h2.9c0.2,0,0.5,0,0.9,0c0.4,0,0.7,0,0.9,0c1.3,0,2.3,0.3,3,0.8c0.9,0.7,1.3,1.5,1.3,2.6
				c0,0.8-0.3,1.5-0.9,2.1c-0.6,0.6-1.4,1.1-2.4,1.3c1.5,2,2.7,3.5,3.6,4.4C345.5,241.7,346.4,242.4,347.1,242.8z"/>
			<path class="st0" d="M361.3,236.1c0,2-0.7,3.6-2.2,5c-1.4,1.4-3.2,2-5.3,2c-2.1,0-3.8-0.7-5.2-2c-1.4-1.3-2.1-3-2.1-4.9
				c0-2,0.7-3.7,2.2-5c1.5-1.4,3.3-2,5.4-2c2.1,0,3.8,0.7,5.1,2c0.6,0.6,1.1,1.4,1.5,2.2C361.1,234.3,361.3,235.2,361.3,236.1z
				 M359,236.4c0-1.6-0.5-2.9-1.4-4c-1-1.2-2.2-1.8-3.8-1.8c-1.5,0-2.7,0.5-3.6,1.5c-0.9,1-1.4,2.2-1.4,3.8c0,1.7,0.5,3.1,1.6,4.3
				c0.9,1,2.1,1.5,3.5,1.5c1.5,0,2.7-0.5,3.7-1.5C358.5,239.3,359,238,359,236.4z"/>
			<path class="st0" d="M381.7,242.8h-4.2c0.5-0.3,0.7-0.6,0.7-0.8c0-0.2-0.1-0.5-0.3-1.1l-1.2-3.1h-5.1l-1.1,3.1
				c-0.2,0.4-0.2,0.8-0.2,1c0,0.3,0.2,0.6,0.7,0.9h-3.7c0.5-0.3,0.8-0.6,1-0.9c0.2-0.3,0.5-0.9,0.9-1.8l3.6-8.9
				c0.2-0.4,0.2-0.7,0.2-0.9c0-0.3-0.2-0.6-0.6-0.8h3.2l4.2,10.6c0.3,0.8,0.6,1.4,0.9,1.8C380.9,242.2,381.3,242.6,381.7,242.8z
				 M376.2,236.5l-2.1-5.3l-2.1,5.3H376.2z"/>
			<path class="st0" d="M400.4,242.8h-3.9c0.6-0.2,0.8-0.7,0.8-1.5c0-0.2,0-0.6-0.1-1.1l-1.1-8.6l-4.5,11.6c-0.5-0.4-0.8-0.7-1-1
				c-0.2-0.3-0.4-0.7-0.6-1.2l-4-9.3l-1.2,8.9c-0.1,0.5-0.1,0.8-0.1,1c0,0.5,0.3,1,0.8,1.3h-3.3c0.6-0.5,0.9-1.4,1.1-2.7l1.2-8.5
				c0.1-0.6,0.1-0.9,0.1-1c0-0.4-0.2-0.8-0.7-1.1h3.5c0,0.2,0.1,0.4,0.2,0.7l3.9,9.1l3.3-8.4c0.3-0.7,0.4-1.1,0.4-1.5h3.5
				c-0.4,0.2-0.6,0.6-0.6,1.3c0,0.2,0,0.4,0.1,0.7l1.3,8.9c0.1,0.7,0.2,1.2,0.3,1.5C399.8,242.2,400,242.5,400.4,242.8z"/>
			<path class="st0" d="M411.3,240.2l-0.9,2.6h-8.4c0.4-0.2,0.7-0.6,0.8-1.1c0.1-0.2,0.1-0.7,0.1-1.5v-8.1c0-0.7,0-1.2-0.1-1.5
				c-0.1-0.5-0.4-0.9-0.8-1.1h6.7c0.3,0,0.5,0,0.8-0.1v2.3c-0.4-0.3-0.7-0.6-1.1-0.7c-0.3-0.1-0.7-0.1-1.3-0.1c-0.8,0-1.5,0-2.1,0.1
				v3.7h2.7c0.3,0,0.5,0,0.7-0.1v2.1c-0.3-0.4-0.8-0.6-1.6-0.6h-1.8v4.8c0.9,0.1,1.7,0.2,2.5,0.2C408.9,241.3,410.3,241,411.3,240.2
				z M410.1,226.8l-5.5,1.6l4.4-3.1L410.1,226.8z"/>
			<path class="st0" d="M424.4,242.8c-1,0.1-1.6,0.1-1.9,0.1c-0.6,0-1.1-0.1-1.5-0.4c-0.4-0.3-1-0.8-1.6-1.6c-1.3-1.5-2.5-3.2-3.5-5
				c2.2-0.4,3.4-1.3,3.4-2.9c0-0.7-0.2-1.2-0.7-1.6c-0.4-0.4-1-0.6-1.8-0.6c-0.4,0-0.9,0.1-1.4,0.2v9.3c0,0.7,0,1.2,0.1,1.4
				c0.1,0.5,0.4,0.9,0.8,1.1h-3.8c0.4-0.2,0.7-0.6,0.8-1.1c0.1-0.2,0.1-0.7,0.1-1.5v-8.1c0-0.7,0-1.2-0.1-1.5
				c-0.1-0.5-0.4-0.9-0.8-1.1h2.9c0.2,0,0.5,0,0.9,0c0.4,0,0.7,0,0.9,0c1.3,0,2.3,0.3,3,0.8c0.9,0.7,1.3,1.5,1.3,2.6
				c0,0.8-0.3,1.5-0.9,2.1c-0.6,0.6-1.4,1.1-2.3,1.3c1.5,2,2.7,3.5,3.6,4.4C422.7,241.7,423.6,242.4,424.4,242.8z"/>
			<path class="st0" d="M428.4,242.8h-3.8c0.4-0.2,0.7-0.6,0.8-1.1c0.1-0.2,0.1-0.7,0.1-1.5v-8.1c0-0.7,0-1.2-0.1-1.5
				c-0.1-0.5-0.4-0.9-0.8-1.1h3.8c-0.4,0.2-0.7,0.6-0.8,1.1c0,0.2-0.1,0.7-0.1,1.5v8.1c0,0.7,0,1.2,0.1,1.5
				C427.7,242.2,427.9,242.6,428.4,242.8z"/>
			<path class="st0" d="M441.9,240.2l-1,2.3c-1,0.4-2,0.6-3.1,0.6c-2.3,0-4.2-0.6-5.6-1.9c-1.4-1.3-2.1-2.9-2.1-5c0-2,0.7-3.7,2-5
				c1.3-1.3,3.1-2,5.1-2c1,0,2.2,0.2,3.6,0.5v2.3c-1.3-0.7-2.5-1.1-3.7-1.1c-1.4,0-2.6,0.5-3.5,1.4c-0.9,0.9-1.3,2.1-1.3,3.5
				c0,1.6,0.5,2.9,1.5,4c1,1.1,2.2,1.6,3.6,1.6C438.8,241.5,440.3,241.1,441.9,240.2z"/>
			<path class="st0" d="M456.8,242.8h-4.2c0.5-0.3,0.7-0.6,0.7-0.8c0-0.2-0.1-0.5-0.3-1.1l-1.2-3.1h-5.1l-1.2,3.1
				c-0.2,0.4-0.2,0.8-0.2,1c0,0.3,0.2,0.6,0.7,0.9h-3.7c0.5-0.3,0.8-0.6,1-0.9c0.2-0.3,0.5-0.9,0.9-1.8l3.6-8.9
				c0.2-0.4,0.2-0.7,0.2-0.9c0-0.3-0.2-0.6-0.6-0.8h3.2l4.3,10.6c0.3,0.8,0.6,1.4,0.9,1.8C456,242.2,456.3,242.6,456.8,242.8z
				 M451.3,236.5l-2.1-5.3l-2.1,5.3H451.3z"/>
		</g>
	</g>
	<g>
		<g>
			<g>
				<path class="st1" d="M227.3,127.8c-1.7,0-3.3-0.3-4.7-1c-14.1-6.5-24.4-14.1-32.4-24c-6.5-8-9.5-16.9-9.4-27.2
					c0.1-12.7,0.2-25.6,0.1-39.6h0l0-8.2V13.4L227.2,0l46.7,13.5l0,22.5h0c0,2.2,0,4.3,0,6.4v0.2c0,2.7,0,5.3,0,8c0,2.6,0,5.2,0,7.8
					v0.1c-0.1,5.7-0.1,11.7,0.1,17.4c0.3,9.9-2.7,18.7-9.4,27c-7.9,9.8-18,17.4-32,23.8C231,127.4,229.1,127.8,227.3,127.8z"/>
				<path class="st1" d="M227.3,127.2c-1.6,0-3.1-0.3-4.5-0.9c-14.1-6.4-24.3-14-32.2-23.8c-6.3-7.9-9.4-16.7-9.3-26.9
					c0.1-12.8,0.2-26,0.1-40.2h0l0-7.6V13.9l45.8-13.3l46.1,13.3l0,21.5h0c0,2.4,0,4.7,0,7v0.2c0,2.7,0,5.4,0,8c0,2.6,0,5.3,0,7.8
					c0,5.8-0.1,11.7,0.1,17.5c0.3,9.7-2.7,18.4-9.2,26.6c-7.8,9.7-17.9,17.2-31.8,23.6C230.8,126.8,229.1,127.2,227.3,127.2z"/>
				<path class="st2" d="M227.8,126.2c-1.5,0-2.9-0.3-4.1-0.8c-13.9-6.4-24-13.9-31.8-23.6c-6.2-7.7-9.2-16.3-9.1-26.2
					c0.1-13.1,0.2-26.6,0.1-41.2h0l0-6.6V14.7l44.8-13l45.1,13l0,19.6h0c0,2.7,0,5.4,0,8.1v0.2c0,2.7,0,5.4,0,8c0,2.6,0,5.3,0,7.8
					c-0.1,5.8-0.1,11.7,0.1,17.5c0.3,9.5-2.6,17.9-9,25.9c-7.7,9.6-17.7,17-31.4,23.3C231,125.8,229.4,126.2,227.8,126.2z"/>
				<path class="st2" d="M227.3,122.9c-1,0-2-0.2-2.8-0.6c-13.4-6.2-23.2-13.4-30.6-22.7c-5.7-7.1-8.4-15-8.3-24
					c0.1-14.1,0.2-28.7,0-44.6h0l0-3.3V17.2l41.6-12l41.9,12.1l0,13.8h0c0,3.8,0,7.6,0,11.4c0,2.7,0,5.5,0,8.2c0,2.6,0,5.3,0,7.8
					c0,5.8-0.1,11.8,0.1,17.7c0.3,8.6-2.4,16.4-8.3,23.7c-7.4,9.2-17,16.3-30.3,22.4C229.7,122.6,228.5,122.9,227.3,122.9z"/>
				<path class="st2" d="M227.3,120.2c-0.7,0-1.3-0.1-1.8-0.3c-13.1-6-22.5-12.9-29.7-21.9c-5.3-6.6-7.8-13.9-7.7-22.3
					c0.2-14.9,0.2-30.3,0-47.2h0l0-0.7v-8.6l39.1-11.3l39.4,11.3v9.2h0c0,4.7,0,9.4,0,14c0,2.7,0,5.5,0,8.2c0,2.6,0,5.2-0.1,7.8
					c0,5.8-0.1,11.9,0.1,17.8c0.3,8-2.3,15.1-7.7,21.9c-7.1,8.9-16.4,15.8-29.3,21.7C229,120.1,228.1,120.2,227.3,120.2z"/>
				<path class="st1" d="M266,76.2c-0.3-8.5-0.1-17-0.1-25.6c0-7.6-0.1-15.2,0-22.8h0l0-8.1L227.2,8.5l-38.4,11.1v8.1h0
					c0.1,16,0.1,31.9,0,47.9c-0.1,8.4,2.5,15.6,7.6,21.9c8,9.9,18.2,16.6,29.5,21.7c1,0.5,2.5,0.3,3.5-0.1
					c11.1-5.1,21.2-11.7,29.1-21.5C263.4,91.4,266.3,84.5,266,76.2z"/>
			</g>
		</g>
		<g>
			<g>
				<g>
					<path class="st3" d="M199.5,37.6c0.6,1,1.3,2,2.1,2.8c1.1,1,2.2,1.9,3.4,2.9c0.8,0.7,1.7,1.4,2.4,2.2c1.5,1.5,2.1,3.4,2.1,5.6
						c0,6.4,0,12.9,0,19.3c0,6,1.7,11.4,4.9,16.2c2,3,4.7,5.4,7.8,6.9c4.1,2,8.1,1.8,12-0.5c3.9-2.3,7-5.7,9-10
						c1.4-2.9,2.3-5.9,2.6-9.1c0.1-1.1,0.2-2.1,0.2-3.2c0-6.4,0-12.7,0-19.1c0-2.9,1-5.2,3-6.9c0.9-0.7,1.8-1.5,2.7-2.2
						c1.7-1.3,3.2-2.8,4.3-4.8c0,0.1,0,0.2,0,0.3c0,10.3,0,20.5,0,30.8c0,2.8-0.6,5.5-1.5,8c-1.3,3.6-3.1,6.8-5.6,9.6
						c-4.4,4.9-9.8,7.9-16,9.1c-1,0.2-2,0.3-2.9,0.4c-0.1,0-0.1,0-0.2,0.1c-1.4,0-2.8,0-4.2,0c-0.1,0-0.1-0.1-0.2-0.1
						c-1.9-0.1-3.7-0.5-5.5-1c-6.9-2.1-12.5-6.2-16.5-12.7c-2.1-3.4-3.4-7.3-3.9-11.4c0-0.5-0.1-0.9-0.2-1.4
						C199.5,58.7,199.5,48.1,199.5,37.6z"/>
				</g>
				<g>
					<g>
						<g>
							<g>
								<path class="st0" d="M221.6,63.2c-11.8-14.2,9.3-33.7,6.1-46.6l2.7,5.3C233.5,29.5,216.9,52.9,221.6,63.2z"/>
								<path class="st0" d="M227.7,69.7c-15.4-9.1,6-30.2,3.9-45.2l2.6,5C237.4,39.5,218.4,61.5,227.7,69.7z"/>
								<path class="st0" d="M235.3,31.8c1.3,2.9,0.2,6.6,0.2,6.6c0.1,3.3-8,18.5-8.3,24.5c-0.5,10.8,7.9,9.1,7.9,9.1
									c-12.3-4.1,1.9-18.7,3.1-31.7C238.5,37,234.3,29.7,235.3,31.8z"/>
							</g>
						</g>
					</g>
				</g>
			</g>
			<g>
				<path class="st0" d="M218.8,105.2l-0.3,0.8H216c0.1-0.1,0.2-0.2,0.3-0.3c0-0.1,0-0.2,0-0.5v-2.5c0-0.2,0-0.4,0-0.4
					c0-0.2-0.1-0.3-0.3-0.3h2.1c0.1,0,0.2,0,0.2,0v0.7c-0.1-0.1-0.2-0.2-0.3-0.2c-0.1,0-0.2,0-0.4,0c-0.3,0-0.5,0-0.6,0v1.1h0.8
					c0.1,0,0.2,0,0.2,0v0.7c-0.1-0.1-0.3-0.2-0.5-0.2h-0.6v1.5c0.3,0,0.5,0.1,0.8,0.1C218.1,105.6,218.5,105.5,218.8,105.2z"/>
				<path class="st0" d="M222.1,104.9c0,0.3-0.1,0.6-0.4,0.8c-0.3,0.3-0.7,0.5-1.3,0.5c-0.4,0-0.7-0.1-1.1-0.2l-0.2-0.8
					c0.4,0.3,0.9,0.5,1.4,0.5c0.3,0,0.5-0.1,0.7-0.2c0.2-0.1,0.3-0.3,0.3-0.5c0-0.2-0.1-0.3-0.2-0.4c-0.1-0.1-0.4-0.2-0.8-0.4
					c-0.4-0.2-0.7-0.4-0.8-0.5c-0.2-0.2-0.3-0.4-0.3-0.7c0-0.3,0.1-0.6,0.4-0.8c0.3-0.2,0.7-0.3,1.1-0.3c0.3,0,0.6,0,0.9,0.1v0.7
					c-0.3-0.3-0.6-0.4-1-0.4c-0.2,0-0.4,0.1-0.6,0.2c-0.2,0.1-0.2,0.2-0.2,0.4c0,0.2,0.1,0.3,0.2,0.4c0.1,0.1,0.4,0.2,0.7,0.4
					c0.4,0.2,0.7,0.4,0.9,0.5C222,104.4,222.1,104.6,222.1,104.9z"/>
				<path class="st0" d="M225.5,102l-0.2,0.7c-0.1-0.1-0.1-0.2-0.2-0.2c-0.1,0-0.2,0-0.3,0c0,0-0.1,0-0.2,0c-0.1,0-0.2,0-0.3,0h-0.1
					v2.8c0,0.2,0,0.4,0.1,0.4c0,0.1,0.1,0.2,0.3,0.3h-1.2c0.1-0.1,0.2-0.2,0.2-0.3c0-0.1,0-0.2,0-0.4v-2.8c-0.1,0-0.3,0-0.5,0
					c-0.2,0-0.3,0-0.4,0c-0.1,0-0.3,0.1-0.4,0.2l0.2-0.7c0.1,0,0.2,0,0.3,0h2.3c0.1,0,0.1,0,0.2,0C225.4,102,225.4,102,225.5,102z"
					/>
				<path class="st0" d="M226.3,105.7c0,0.1,0,0.2-0.1,0.3c-0.1,0.1-0.2,0.1-0.3,0.1s-0.2,0-0.3-0.1c-0.1-0.1-0.1-0.2-0.1-0.3
					c0-0.1,0-0.2,0.1-0.3c0.1-0.1,0.2-0.1,0.3-0.1c0.1,0,0.2,0,0.3,0.1C226.2,105.5,226.3,105.6,226.3,105.7z"/>
				<path class="st0" d="M228.7,106h-1.3c0.2-0.1,0.3-0.2,0.3-0.3c0-0.1,0.1-0.2,0.1-0.5v-2.4h-0.7c0.3-0.1,0.5-0.3,0.8-0.4
					c0.3-0.2,0.4-0.4,0.6-0.7v3.5c0,0.3,0,0.5,0.1,0.6C228.6,105.9,228.6,106,228.7,106z"/>
				<path class="st0" d="M232.8,103.6c0,0.4-0.1,0.8-0.3,1.2c-0.2,0.4-0.5,0.7-0.9,0.9c-0.4,0.3-0.9,0.4-1.6,0.5l0.3-0.4
					c0.5-0.1,0.8-0.3,1.2-0.6c0.5-0.4,0.7-1,0.7-1.5c0-0.4-0.1-0.7-0.3-0.9c-0.2-0.2-0.4-0.4-0.7-0.4c-0.3,0-0.5,0.1-0.7,0.3
					c-0.2,0.2-0.3,0.4-0.3,0.7c0,0.3,0.1,0.5,0.3,0.7c0.2,0.2,0.4,0.3,0.7,0.3c0.2,0,0.4-0.1,0.7-0.2l-0.4,0.5
					c-0.2,0.1-0.3,0.1-0.5,0.1c-0.4,0-0.7-0.1-0.9-0.4c-0.2-0.2-0.4-0.6-0.4-0.9c0-0.4,0.2-0.8,0.5-1c0.3-0.3,0.7-0.4,1.1-0.4
					c0.5,0,0.9,0.2,1.2,0.5C232.7,102.7,232.8,103.1,232.8,103.6z"/>
				<path class="st0" d="M236.6,105.3l-0.3,0.7h-2.9l1.6-2.3c0.2-0.3,0.3-0.6,0.3-0.8c0-0.2-0.1-0.3-0.2-0.4
					c-0.1-0.1-0.3-0.2-0.5-0.2c-0.3,0-0.7,0.1-1.1,0.4l0.4-0.7c0.3-0.1,0.6-0.1,0.8-0.1c0.4,0,0.7,0.1,0.9,0.3
					c0.3,0.2,0.4,0.4,0.4,0.7c0,0.2-0.1,0.4-0.3,0.8c-0.1,0.2-0.2,0.4-0.3,0.5l-1,1.4c0.3,0,0.6,0.1,0.9,0.1
					C235.8,105.6,236.2,105.5,236.6,105.3z"/>
				<path class="st0" d="M239.9,102l-0.9,2c-0.5,1.1-0.7,1.7-0.7,1.8c0,0.1,0.1,0.2,0.2,0.2h-1l1.6-3.5c-0.3-0.1-0.6-0.1-0.9-0.1
					c-0.5,0-0.9,0.1-1.2,0.3l0.3-0.7H239.9z"/>
			</g>
		</g>
	</g>
</g>
</svg>
