<?xml version="1.0" encoding="utf-8"?>
<!-- Generator: Adobe Illustrator 22.0.1, SVG Export Plug-In . SVG Version: 6.00 Build 0)  -->
<svg version="1.1" id="Capa_1" xmlns="http://www.w3.org/2000/svg" xmlns:xlink="http://www.w3.org/1999/xlink" x="0px" y="0px"
	 viewBox="0 0 671.3 343.3" style="enable-background:new 0 0 671.3 343.3;" xml:space="preserve">
<style type="text/css">
	.st0{fill:#002D62;}
	.st1{fill:#C0A660;}
	.st2{fill-rule:evenodd;clip-rule:evenodd;fill:#EDCC85;}
	.st3{fill-rule:evenodd;clip-rule:evenodd;fill:#A38B55;}
	.st4{fill-rule:evenodd;clip-rule:evenodd;fill:#C0A660;}
	.st5{fill-rule:evenodd;clip-rule:evenodd;fill:#FFFFFF;}
	.st6{fill-rule:evenodd;clip-rule:evenodd;fill:#002D62;}
</style>
<g>
	<g>
		<path class="st0" d="M93.5,301.9H72.1v-10.5c-7.2,8.6-17.2,12.9-30,12.9c-8,0-14.9-1.8-20.8-5.3c-6.6-3.9-11-9.4-13.1-16.5
			c-1-3.5-1.4-9.1-1.4-17v-44.1c0-5.6-0.2-9.2-0.6-10.9c-0.9-3.9-2.9-6.8-6.2-8.5h28.7c-3.3,1.8-5.3,4.6-6.2,8.5
			c-0.4,1.8-0.6,5.5-0.6,10.9v44.1c0,8.7,1.8,15.2,5.3,19.4c4.7,5.6,11.1,8.3,19.3,8.3c9.7,0,17-3.6,22.1-10.8
			c1.9-2.9,2.9-6.8,2.9-11.8v-49.3c0-5.5-0.2-9.1-0.6-10.9c-0.9-3.8-2.9-6.7-6.2-8.5h28.7c-3.3,1.8-5.3,4.6-6.2,8.5
			c-0.4,1.8-0.6,5.5-0.6,10.9v61.1c0,5.5,0.2,9.1,0.6,10.9C88.2,297.3,90.3,300.1,93.5,301.9z"/>
		<path class="st0" d="M201.1,202.1c-3.3,2.1-5.4,4.3-6.5,6.7c-1.1,2.3-1.6,6.1-1.6,11.1v86.9c-7.4-2.4-14.3-7.7-20.8-15.9
			l-53.2-67.4v60.6c0,5,0.5,8.7,1.7,11.1c1.1,2.4,3.2,4.7,6.3,6.7h-27c3.3-2.1,5.4-4.3,6.5-6.7c1.1-2.3,1.6-6.1,1.6-11.1v-64.2
			c0-5-0.6-8.7-1.7-11.1c-1.1-2.4-3.2-4.7-6.2-6.7h22.1c0.2,0.6,1.4,2.4,3.6,5.6l56.2,71.5v-59.3c0-5-0.6-8.7-1.7-11.1
			c-1.1-2.4-3.2-4.6-6.4-6.8H201.1z"/>
		<path class="st0" d="M307.9,301.9h-31.5c3.6-2.2,5.5-4.2,5.5-6c0-1.1-0.9-4-2.6-8.5l-8.9-23.1H232l-8.6,23.1
			c-1.2,3.1-1.7,5.7-1.7,7.8c0,2.6,1.8,4.8,5.5,6.8h-27.9c3.4-2.2,6-4.5,7.6-6.9c1.6-2.4,3.8-6.9,6.5-13.5l26.7-66.7
			c1.2-2.9,1.7-5.2,1.7-6.9c0-2.4-1.5-4.4-4.6-5.9h24.1l31.9,79.4c2.4,6,4.6,10.4,6.6,13.2C301.8,297.5,304.5,299.9,307.9,301.9z
			 M266.5,254.5l-15.4-39.7l-15.5,39.7H266.5z"/>
		<path class="st0" d="M402,251.1c0,9.9-2.6,19.1-7.9,27.4c-5.3,8.4-12.3,14.5-21.1,18.4c-7.5,3.3-20.8,5-40.1,5h-24.4
			c3.1-2.8,4.9-5,5.5-6.8c0.9-2.7,1.3-7.1,1.3-13.4v-60.3c0-5.6-0.2-9.2-0.6-10.9c-0.9-3.9-2.9-6.8-6.2-8.5h15.2c3.8,0,7.2,0,10.1,0
			c2.9,0,6.9,0,11.9,0c16.2,0,29.3,4.2,39.4,12.5C396.3,223.9,402,236.1,402,251.1z M385.3,252.6c0-11.6-3.5-21.3-10.6-28.8
			c-7-7.6-17.2-11.4-30.4-11.4c-3.9,0-8.6,0.5-13.9,1.6v75.6c3.5,0.7,7.3,1,11.2,1c12.6,0,22.3-2.4,28.9-7.3
			C380.4,276,385.3,265.8,385.3,252.6z"/>
		<path class="st0" d="M478.3,282.1l-7,19.8H408c3.3-1.7,5.3-4.5,6.2-8.5c0.4-1.8,0.6-5.5,0.6-11.1v-60.9c0-5.5-0.2-9.1-0.6-10.9
			c-0.9-3.9-2.9-6.8-6.2-8.5h50.4c2.2,0,4.1-0.3,5.7-0.9v17.7c-2.7-2.6-5.5-4.3-8.5-5c-2.2-0.7-5.6-1-10.1-1c-6.3,0-11.5,0.3-15.7,1
			v28.3h20.3c2,0,3.7-0.3,5.2-1v16.1c-2.1-2.7-6.1-4-11.9-4H430v36.1c6.4,1.1,12.6,1.6,18.7,1.6
			C460.7,290.9,470.6,287.9,478.3,282.1z"/>
		<path class="st0" d="M566.7,282.2l-7.6,17.7c-7.4,3-15.2,4.5-23.6,4.5c-17.3,0-31.2-4.8-41.7-14.3c-10.5-9.5-15.7-22.1-15.7-37.9
			c0-15.1,5.1-27.7,15.2-37.6c10.2-10,23-14.9,38.5-14.9c7.6,0,16.7,1.3,27.3,3.9v17.4c-9.7-5.6-18.9-8.3-27.6-8.3
			c-10.6,0-19.3,3.5-26.1,10.4c-6.8,6.9-10.1,15.8-10.1,26.6c0,11.9,3.7,21.9,11.1,30.2c7.4,8.2,16.4,12.4,27.2,12.4
			C543.2,292.2,554.3,288.8,566.7,282.2z"/>
		<path class="st0" d="M671.3,301.9h-31.5c3.6-2.2,5.5-4.2,5.5-6c0-1.1-0.9-4-2.6-8.5l-8.9-23.1h-38.4l-8.6,23.1
			c-1.1,3.1-1.7,5.7-1.7,7.8c0,2.6,1.8,4.8,5.5,6.8h-27.9c3.4-2.2,6-4.5,7.6-6.9c1.6-2.4,3.8-6.9,6.5-13.5l26.7-66.7
			c1.1-2.9,1.7-5.2,1.7-6.9c0-2.4-1.5-4.4-4.6-5.9h24.1l31.9,79.4c2.4,6,4.6,10.4,6.6,13.2C665.3,297.5,668,299.9,671.3,301.9z
			 M630,254.5l-15.4-39.7l-15.5,39.7H630z"/>
	</g>
	<g>
		<path class="st1" d="M18.3,342.4h-4.2v-2.1c-1.4,1.7-3.4,2.5-5.9,2.5c-1.6,0-2.9-0.3-4.1-1c-1.3-0.8-2.1-1.8-2.6-3.2
			c-0.2-0.7-0.3-1.8-0.3-3.3v-8.6c0-1.1,0-1.8-0.1-2.1c-0.2-0.8-0.6-1.3-1.2-1.7h5.6c-0.6,0.4-1,0.9-1.2,1.7
			c-0.1,0.4-0.1,1.1-0.1,2.1v8.6c0,1.7,0.3,3,1,3.8c0.9,1.1,2.2,1.6,3.8,1.6c1.9,0,3.3-0.7,4.3-2.1c0.4-0.6,0.6-1.3,0.6-2.3v-9.6
			c0-1.1,0-1.8-0.1-2.1c-0.2-0.7-0.6-1.3-1.2-1.7h5.6c-0.6,0.4-1,0.9-1.2,1.7c-0.1,0.4-0.1,1.1-0.1,2.1v11.9c0,1.1,0,1.8,0.1,2.1
			C17.3,341.5,17.7,342,18.3,342.4z"/>
		<path class="st1" d="M40.8,322.9c-0.6,0.4-1.1,0.8-1.3,1.3c-0.2,0.5-0.3,1.2-0.3,2.2v17c-1.4-0.5-2.8-1.5-4.1-3.1L24.7,327v11.9
			c0,1,0.1,1.7,0.3,2.2c0.2,0.5,0.6,0.9,1.2,1.3H21c0.6-0.4,1.1-0.8,1.3-1.3c0.2-0.5,0.3-1.2,0.3-2.2v-12.6c0-1-0.1-1.7-0.3-2.2
			c-0.2-0.5-0.6-0.9-1.2-1.3h4.3c0,0.1,0.3,0.5,0.7,1.1l11,14v-11.6c0-1-0.1-1.7-0.3-2.2c-0.2-0.5-0.6-0.9-1.2-1.3H40.8z"/>
		<path class="st1" d="M49,342.4h-5.6c0.6-0.3,1-0.9,1.2-1.7c0.1-0.3,0.1-1,0.1-2.1v-11.9c0-1.1,0-1.8-0.1-2.1
			c-0.2-0.8-0.6-1.3-1.2-1.7H49c-0.6,0.3-1,0.9-1.2,1.7c-0.1,0.3-0.1,1-0.1,2.1v11.9c0,1.1,0,1.8,0.1,2.1
			C47.9,341.5,48.3,342,49,342.4z"/>
		<path class="st1" d="M68.7,322.9l-7.9,20.4c-1.3-0.9-2.2-1.6-2.6-2c-0.3-0.4-0.7-1.2-1.2-2.5l-4-10.8c-0.7-2-1.2-3.2-1.4-3.6
			c-0.2-0.4-0.6-0.9-1.2-1.4h4.3c0,0.1,0,0.2,0,0.3c0,0.4,0.2,1.2,0.7,2.4l4.9,13.3l4.2-11c0.6-1.6,0.9-2.7,0.9-3.3
			c0-0.8-0.4-1.4-1.1-1.7H68.7z"/>
		<path class="st1" d="M84,338.5l-1.4,3.9H70.3c0.6-0.3,1-0.9,1.2-1.7c0.1-0.4,0.1-1.1,0.1-2.2v-11.9c0-1.1,0-1.8-0.1-2.1
			c-0.2-0.8-0.6-1.3-1.2-1.7h9.9c0.4,0,0.8-0.1,1.1-0.2v3.5c-0.5-0.5-1.1-0.8-1.7-1c-0.4-0.1-1.1-0.2-2-0.2c-1.2,0-2.3,0.1-3.1,0.2
			v5.5h4c0.4,0,0.7-0.1,1-0.2v3.1c-0.4-0.5-1.2-0.8-2.3-0.8h-2.6v7.1c1.3,0.2,2.5,0.3,3.7,0.3C80.6,340.2,82.5,339.6,84,338.5z"/>
		<path class="st1" d="M103.3,342.4c-1.5,0.1-2.4,0.2-2.7,0.2c-0.8,0-1.6-0.2-2.2-0.6c-0.6-0.4-1.4-1.2-2.4-2.4
			c-1.9-2.2-3.6-4.7-5.2-7.4c3.3-0.6,4.9-2,4.9-4.2c0-1-0.3-1.8-1-2.4c-0.7-0.6-1.5-0.9-2.6-0.9c-0.6,0-1.3,0.1-2.1,0.2v13.6
			c0,1.1,0,1.8,0.1,2.1c0.2,0.8,0.6,1.3,1.2,1.7h-5.6c0.6-0.3,1-0.9,1.2-1.7c0.1-0.3,0.1-1,0.1-2.1v-11.9c0-1.1,0-1.8-0.1-2.1
			c-0.2-0.8-0.6-1.3-1.2-1.7h4.3c0.3,0,0.7,0,1.3,0c0.6,0,1,0,1.3,0c1.9,0,3.4,0.4,4.4,1.1c1.3,1,2,2.2,2,3.8c0,1.1-0.4,2.2-1.3,3.1
			c-0.9,0.9-2.1,1.6-3.5,1.9c2.2,3,4,5.1,5.3,6.5C100.9,340.8,102.1,341.8,103.3,342.4z"/>
		<path class="st1" d="M117.3,336.7c0,1.5-0.6,2.8-1.8,4c-1.5,1.5-3.6,2.2-6.2,2.2c-1.8,0-3.5-0.3-5.2-0.9l-0.9-3.7
			c2,1.6,4.2,2.4,6.5,2.4c1.3,0,2.3-0.3,3.2-0.9c0.9-0.6,1.3-1.3,1.3-2.2c0-0.8-0.3-1.5-1-2.1c-0.6-0.5-1.8-1.2-3.8-2.1
			c-2-0.9-3.3-1.7-4.1-2.4c-1-0.9-1.5-2.1-1.5-3.4c0-1.6,0.7-2.9,2-3.8c1.3-1,3.1-1.4,5.4-1.4c1.5,0,3,0.2,4.5,0.6v3.4
			c-1.3-1.3-2.9-1.9-4.7-1.9c-1.2,0-2.1,0.3-2.8,0.8c-0.7,0.5-1.1,1.2-1.1,2c0,0.7,0.3,1.3,0.9,1.8c0.6,0.5,1.7,1.2,3.5,2
			c2.1,1,3.6,1.8,4.3,2.4C116.8,334.3,117.3,335.4,117.3,336.7z"/>
		<path class="st1" d="M125.5,342.4h-5.6c0.6-0.3,1-0.9,1.2-1.7c0.1-0.3,0.1-1,0.1-2.1v-11.9c0-1.1,0-1.8-0.1-2.1
			c-0.2-0.8-0.6-1.3-1.2-1.7h5.6c-0.6,0.3-1,0.9-1.2,1.7c-0.1,0.3-0.1,1-0.1,2.1v11.9c0,1.1,0,1.8,0.1,2.1
			C124.4,341.5,124.8,342,125.5,342.4z"/>
		<path class="st1" d="M146.7,332.4c0,1.9-0.5,3.7-1.5,5.4c-1,1.6-2.4,2.8-4.1,3.6c-1.5,0.6-4.1,1-7.8,1h-4.8c0.6-0.5,1-1,1.1-1.3
			c0.2-0.5,0.3-1.4,0.3-2.6v-11.8c0-1.1,0-1.8-0.1-2.1c-0.2-0.8-0.6-1.3-1.2-1.7h3c0.7,0,1.4,0,2,0c0.6,0,1.3,0,2.3,0
			c3.2,0,5.7,0.8,7.7,2.4C145.6,327.1,146.7,329.5,146.7,332.4z M143.4,332.7c0-2.3-0.7-4.2-2.1-5.6c-1.4-1.5-3.4-2.2-5.9-2.2
			c-0.8,0-1.7,0.1-2.7,0.3V340c0.7,0.1,1.4,0.2,2.2,0.2c2.5,0,4.4-0.5,5.6-1.4C142.4,337.3,143.4,335.3,143.4,332.7z"/>
		<path class="st1" d="M167.8,342.4h-6.2c0.7-0.4,1.1-0.8,1.1-1.2c0-0.2-0.2-0.8-0.5-1.7l-1.7-4.5H153l-1.7,4.5
			c-0.2,0.6-0.3,1.1-0.3,1.5c0,0.5,0.4,0.9,1.1,1.3h-5.5c0.7-0.4,1.2-0.9,1.5-1.3c0.3-0.5,0.7-1.3,1.3-2.6l5.2-13
			c0.2-0.6,0.3-1,0.3-1.4c0-0.5-0.3-0.9-0.9-1.1h4.7l6.2,15.5c0.5,1.2,0.9,2,1.3,2.6C166.6,341.5,167.1,342,167.8,342.4z
			 M159.7,333.1l-3-7.8l-3,7.8H159.7z"/>
		<path class="st1" d="M187.6,332.4c0,1.9-0.5,3.7-1.5,5.4c-1,1.6-2.4,2.8-4.1,3.6c-1.5,0.6-4.1,1-7.8,1h-4.8c0.6-0.5,1-1,1.1-1.3
			c0.2-0.5,0.3-1.4,0.3-2.6v-11.8c0-1.1,0-1.8-0.1-2.1c-0.2-0.8-0.6-1.3-1.2-1.7h3c0.8,0,1.4,0,2,0c0.6,0,1.3,0,2.3,0
			c3.2,0,5.7,0.8,7.7,2.4C186.5,327.1,187.6,329.5,187.6,332.4z M184.3,332.7c0-2.3-0.7-4.2-2.1-5.6c-1.4-1.5-3.4-2.2-5.9-2.2
			c-0.8,0-1.7,0.1-2.7,0.3V340c0.7,0.1,1.4,0.2,2.2,0.2c2.5,0,4.4-0.5,5.7-1.4C183.4,337.3,184.3,335.3,184.3,332.7z"/>
		<path class="st1" d="M217.5,342.4h-6.2c0.7-0.4,1.1-0.8,1.1-1.2c0-0.2-0.2-0.8-0.5-1.7l-1.7-4.5h-7.5l-1.7,4.5
			c-0.2,0.6-0.3,1.1-0.3,1.5c0,0.5,0.4,0.9,1.1,1.3h-5.4c0.7-0.4,1.2-0.9,1.5-1.3c0.3-0.5,0.7-1.3,1.3-2.6l5.2-13
			c0.2-0.6,0.3-1,0.3-1.4c0-0.5-0.3-0.9-0.9-1.1h4.7l6.2,15.5c0.5,1.2,0.9,2,1.3,2.6C216.4,341.5,216.9,342,217.5,342.4z
			 M209.5,333.1l-3-7.8l-3,7.8H209.5z"/>
		<path class="st1" d="M237.4,332.4c0,1.9-0.5,3.7-1.5,5.4c-1,1.6-2.4,2.8-4.1,3.6c-1.5,0.6-4.1,1-7.8,1h-4.8c0.6-0.5,1-1,1.1-1.3
			c0.2-0.5,0.3-1.4,0.3-2.6v-11.8c0-1.1,0-1.8-0.1-2.1c-0.2-0.8-0.6-1.3-1.2-1.7h3c0.7,0,1.4,0,2,0c0.6,0,1.3,0,2.3,0
			c3.2,0,5.7,0.8,7.7,2.4C236.3,327.1,237.4,329.5,237.4,332.4z M234.1,332.7c0-2.3-0.7-4.2-2.1-5.6c-1.4-1.5-3.4-2.2-5.9-2.2
			c-0.8,0-1.7,0.1-2.7,0.3V340c0.7,0.1,1.4,0.2,2.2,0.2c2.5,0,4.4-0.5,5.6-1.4C233.1,337.3,234.1,335.3,234.1,332.7z"/>
		<path class="st1" d="M255.8,322.9l-7.9,20.4c-1.3-0.9-2.2-1.6-2.6-2c-0.3-0.4-0.7-1.2-1.2-2.5l-4-10.8c-0.7-2-1.2-3.2-1.4-3.6
			c-0.2-0.4-0.6-0.9-1.2-1.4h4.3c0,0.1,0,0.2,0,0.3c0,0.4,0.2,1.2,0.7,2.4l4.9,13.3l4.2-11c0.6-1.6,0.9-2.7,0.9-3.3
			c0-0.8-0.4-1.4-1.1-1.7H255.8z"/>
		<path class="st1" d="M271.1,338.5l-1.4,3.9h-12.4c0.6-0.3,1-0.9,1.2-1.7c0.1-0.4,0.1-1.1,0.1-2.2v-11.9c0-1.1,0-1.8-0.1-2.1
			c-0.2-0.8-0.6-1.3-1.2-1.7h9.9c0.4,0,0.8-0.1,1.1-0.2v3.5c-0.5-0.5-1.1-0.8-1.7-1c-0.4-0.1-1.1-0.2-2-0.2c-1.2,0-2.3,0.1-3.1,0.2
			v5.5h4c0.4,0,0.7-0.1,1-0.2v3.1c-0.4-0.5-1.2-0.8-2.3-0.8h-2.6v7.1c1.3,0.2,2.5,0.3,3.7,0.3C267.7,340.2,269.6,339.6,271.1,338.5z
			"/>
		<path class="st1" d="M292.4,322.9c-0.6,0.4-1.1,0.8-1.3,1.3c-0.2,0.5-0.3,1.2-0.3,2.2v17c-1.4-0.5-2.8-1.5-4.1-3.1L276.4,327v11.9
			c0,1,0.1,1.7,0.3,2.2c0.2,0.5,0.6,0.9,1.2,1.3h-5.3c0.6-0.4,1.1-0.8,1.3-1.3c0.2-0.5,0.3-1.2,0.3-2.2v-12.6c0-1-0.1-1.7-0.3-2.2
			c-0.2-0.5-0.6-0.9-1.2-1.3h4.3c0,0.1,0.3,0.5,0.7,1.1l11,14v-11.6c0-1-0.1-1.7-0.3-2.2c-0.2-0.5-0.6-0.9-1.2-1.3H292.4z"/>
		<path class="st1" d="M308.8,322.7l-1,3.5c-0.3-0.5-0.7-0.8-1.2-1c-0.3-0.1-0.9-0.1-1.6-0.1c-0.2,0-0.4,0-0.7,0c-0.3,0-0.8,0-1.3,0
			h-0.5v13.7c0,1,0.1,1.7,0.3,2.1c0.2,0.5,0.6,0.9,1.3,1.3h-5.9c0.6-0.3,1-0.9,1.2-1.7c0.1-0.4,0.1-1.1,0.1-2.1v-13.4
			c-0.6-0.1-1.4-0.1-2.4-0.1c-0.9,0-1.6,0.1-2,0.2c-0.6,0.2-1.2,0.5-1.8,1l1.1-3.5c0.4,0.1,0.9,0.2,1.5,0.2h11.2
			c0.2,0,0.6,0,1.2-0.1C308.3,322.8,308.5,322.7,308.8,322.7z"/>
		<path class="st1" d="M315.7,342.4h-5.6c0.6-0.3,1-0.9,1.2-1.7c0.1-0.3,0.1-1,0.1-2.1v-11.9c0-1.1,0-1.8-0.1-2.1
			c-0.2-0.8-0.6-1.3-1.2-1.7h5.6c-0.6,0.3-1,0.9-1.2,1.7c-0.1,0.3-0.1,1-0.1,2.1v11.9c0,1.1,0,1.8,0.1,2.1
			C314.7,341.5,315.1,342,315.7,342.4z"/>
		<path class="st1" d="M332.4,336.7c0,1.5-0.6,2.8-1.8,4c-1.5,1.5-3.6,2.2-6.2,2.2c-1.8,0-3.5-0.3-5.2-0.9l-0.9-3.7
			c2,1.6,4.2,2.4,6.5,2.4c1.3,0,2.3-0.3,3.2-0.9c0.9-0.6,1.3-1.3,1.3-2.2c0-0.8-0.3-1.5-1-2.1c-0.6-0.5-1.8-1.2-3.8-2.1
			c-2-0.9-3.3-1.7-4.1-2.4c-1-0.9-1.5-2.1-1.5-3.4c0-1.6,0.7-2.9,2-3.8c1.3-1,3.1-1.4,5.4-1.4c1.5,0,3,0.2,4.5,0.6v3.4
			c-1.3-1.3-2.9-1.9-4.7-1.9c-1.2,0-2.1,0.3-2.8,0.8c-0.7,0.5-1.1,1.2-1.1,2c0,0.7,0.3,1.3,0.9,1.8c0.6,0.5,1.7,1.2,3.5,2
			c2.1,1,3.6,1.8,4.3,2.4C331.9,334.3,332.4,335.4,332.4,336.7z"/>
		<path class="st1" d="M348.6,322.7l-1,3.5c-0.3-0.5-0.7-0.8-1.2-1c-0.3-0.1-0.9-0.1-1.6-0.1c-0.2,0-0.4,0-0.7,0c-0.3,0-0.8,0-1.3,0
			h-0.5v13.7c0,1,0.1,1.7,0.3,2.1c0.2,0.5,0.6,0.9,1.3,1.3H338c0.6-0.3,1-0.9,1.2-1.7c0.1-0.4,0.1-1.1,0.1-2.1v-13.4
			c-0.6-0.1-1.4-0.1-2.4-0.1c-0.9,0-1.6,0.1-2,0.2c-0.6,0.2-1.2,0.5-1.8,1l1.1-3.5c0.4,0.1,0.9,0.2,1.5,0.2h11.2
			c0.2,0,0.6,0,1.2-0.1C348.1,322.8,348.3,322.7,348.6,322.7z"/>
		<path class="st1" d="M368.6,342.4h-6.2c0.7-0.4,1.1-0.8,1.1-1.2c0-0.2-0.2-0.8-0.5-1.7l-1.7-4.5h-7.5l-1.7,4.5
			c-0.2,0.6-0.3,1.1-0.3,1.5c0,0.5,0.4,0.9,1.1,1.3h-5.5c0.7-0.4,1.2-0.9,1.5-1.3c0.3-0.5,0.7-1.3,1.3-2.6l5.2-13
			c0.2-0.6,0.3-1,0.3-1.4c0-0.5-0.3-0.9-0.9-1.1h4.7l6.2,15.5c0.5,1.2,0.9,2,1.3,2.6C367.4,341.5,367.9,342,368.6,342.4z
			 M360.5,333.1l-3-7.8l-3,7.8H360.5z"/>
		<path class="st1" d="M395.7,332.4c0,1.9-0.5,3.7-1.5,5.4c-1,1.6-2.4,2.8-4.1,3.6c-1.5,0.6-4.1,1-7.8,1h-4.8c0.6-0.5,1-1,1.1-1.3
			c0.2-0.5,0.3-1.4,0.3-2.6v-11.8c0-1.1,0-1.8-0.1-2.1c-0.2-0.8-0.6-1.3-1.2-1.7h3c0.8,0,1.4,0,2,0c0.6,0,1.3,0,2.3,0
			c3.2,0,5.7,0.8,7.7,2.4C394.6,327.1,395.7,329.5,395.7,332.4z M392.5,332.7c0-2.3-0.7-4.2-2.1-5.6c-1.4-1.5-3.4-2.2-5.9-2.2
			c-0.8,0-1.7,0.1-2.7,0.3V340c0.7,0.1,1.4,0.2,2.2,0.2c2.5,0,4.4-0.5,5.6-1.4C391.5,337.3,392.5,335.3,392.5,332.7z"/>
		<path class="st1" d="M412.1,338.5l-1.4,3.9h-12.4c0.6-0.3,1-0.9,1.2-1.7c0.1-0.4,0.1-1.1,0.1-2.2v-11.9c0-1.1,0-1.8-0.1-2.1
			c-0.2-0.8-0.6-1.3-1.2-1.7h9.9c0.4,0,0.8-0.1,1.1-0.2v3.5c-0.5-0.5-1.1-0.8-1.7-1c-0.4-0.1-1.1-0.2-2-0.2c-1.2,0-2.3,0.1-3.1,0.2
			v5.5h4c0.4,0,0.7-0.1,1-0.2v3.1c-0.4-0.5-1.2-0.8-2.3-0.8h-2.6v7.1c1.3,0.2,2.5,0.3,3.7,0.3C408.6,340.2,410.6,339.6,412.1,338.5z
			"/>
		<path class="st1" d="M438.1,338.5l-1.5,3.5c-1.4,0.6-3,0.9-4.6,0.9c-3.4,0-6.1-0.9-8.2-2.8c-2-1.9-3.1-4.3-3.1-7.4
			c0-3,1-5.4,3-7.4c2-1.9,4.5-2.9,7.5-2.9c1.5,0,3.3,0.3,5.3,0.8v3.4c-1.9-1.1-3.7-1.6-5.4-1.6c-2.1,0-3.8,0.7-5.1,2
			c-1.3,1.4-2,3.1-2,5.2c0,2.3,0.7,4.3,2.2,5.9c1.4,1.6,3.2,2.4,5.3,2.4C433.5,340.5,435.7,339.8,438.1,338.5z"/>
		<path class="st1" d="M453.7,338.5l-1.4,3.9h-12.4c0.6-0.3,1-0.9,1.2-1.7c0.1-0.4,0.1-1.1,0.1-2.2v-11.9c0-1.1,0-1.8-0.1-2.1
			c-0.2-0.8-0.6-1.3-1.2-1.7h9.9c0.4,0,0.8-0.1,1.1-0.2v3.5c-0.5-0.5-1.1-0.8-1.7-1c-0.4-0.1-1.1-0.2-2-0.2c-1.2,0-2.3,0.1-3.1,0.2
			v5.5h4c0.4,0,0.7-0.1,1-0.2v3.1c-0.4-0.5-1.2-0.8-2.3-0.8h-2.6v7.1c1.3,0.2,2.5,0.3,3.7,0.3C450.2,340.2,452.2,339.6,453.7,338.5z
			"/>
		<path class="st1" d="M474.9,322.9c-0.6,0.4-1.1,0.8-1.3,1.3c-0.2,0.5-0.3,1.2-0.3,2.2v17c-1.4-0.5-2.8-1.5-4.1-3.1L458.9,327v11.9
			c0,1,0.1,1.7,0.3,2.2c0.2,0.5,0.6,0.9,1.2,1.3h-5.3c0.6-0.4,1.1-0.8,1.3-1.3c0.2-0.5,0.3-1.2,0.3-2.2v-12.6c0-1-0.1-1.7-0.3-2.2
			c-0.2-0.5-0.6-0.9-1.2-1.3h4.3c0,0.1,0.3,0.5,0.7,1.1l11,14v-11.6c0-1-0.1-1.7-0.3-2.2c-0.2-0.5-0.6-0.9-1.2-1.3H474.9z"/>
		<path class="st1" d="M491.4,322.7l-1,3.5c-0.3-0.5-0.7-0.8-1.2-1c-0.3-0.1-0.9-0.1-1.6-0.1c-0.2,0-0.4,0-0.7,0c-0.3,0-0.8,0-1.3,0
			h-0.5v13.7c0,1,0.1,1.7,0.3,2.1c0.2,0.5,0.6,0.9,1.3,1.3h-5.9c0.6-0.3,1-0.9,1.2-1.7c0.1-0.4,0.1-1.1,0.1-2.1v-13.4
			c-0.6-0.1-1.4-0.1-2.4-0.1c-0.9,0-1.6,0.1-2,0.2c-0.6,0.2-1.2,0.5-1.8,1l1.1-3.5c0.4,0.1,0.9,0.2,1.5,0.2h11.2
			c0.2,0,0.6,0,1.2-0.1C490.9,322.8,491.1,322.7,491.4,322.7z"/>
		<path class="st1" d="M510.2,342.4c-1.5,0.1-2.4,0.2-2.7,0.2c-0.8,0-1.6-0.2-2.2-0.6c-0.6-0.4-1.4-1.2-2.4-2.4
			c-1.9-2.2-3.6-4.7-5.2-7.4c3.3-0.6,4.9-2,4.9-4.2c0-1-0.3-1.8-1-2.4c-0.7-0.6-1.5-0.9-2.6-0.9c-0.6,0-1.3,0.1-2.1,0.2v13.6
			c0,1.1,0,1.8,0.1,2.1c0.2,0.8,0.6,1.3,1.2,1.7h-5.6c0.6-0.3,1-0.9,1.2-1.7c0.1-0.3,0.1-1,0.1-2.1v-11.9c0-1.1,0-1.8-0.1-2.1
			c-0.2-0.8-0.6-1.3-1.2-1.7h4.3c0.3,0,0.7,0,1.3,0c0.6,0,1,0,1.3,0c1.9,0,3.4,0.4,4.4,1.1c1.3,1,2,2.2,2,3.8c0,1.1-0.4,2.2-1.4,3.1
			c-0.9,0.9-2,1.6-3.5,1.9c2.2,3,4,5.1,5.3,6.5C507.7,340.8,509,341.8,510.2,342.4z"/>
		<path class="st1" d="M531,332.5c0,2.9-1.1,5.4-3.2,7.4c-2.1,2-4.7,3-7.8,3c-3,0-5.6-1-7.7-2.9c-2.1-2-3.1-4.4-3.1-7.2
			c0-2.9,1.1-5.4,3.2-7.4c2.1-2,4.8-3,8-3c3,0,5.6,1,7.6,2.9c0.9,0.9,1.7,2,2.2,3.3C530.7,329.9,531,331.2,531,332.5z M527.6,333
			c0-2.3-0.7-4.3-2-5.9c-1.4-1.7-3.3-2.6-5.6-2.6c-2.2,0-4,0.7-5.4,2.1c-1.4,1.4-2.1,3.3-2.1,5.6c0,2.4,0.8,4.5,2.4,6.3
			c1.3,1.5,3.1,2.2,5.2,2.2c2.2,0,4-0.7,5.4-2.2C526.9,337.2,527.6,335.3,527.6,333z"/>
		<path class="st1" d="M561,342.4h-6.2c0.7-0.4,1.1-0.8,1.1-1.2c0-0.2-0.2-0.8-0.5-1.7l-1.7-4.5h-7.5l-1.7,4.5
			c-0.2,0.6-0.3,1.1-0.3,1.5c0,0.5,0.4,0.9,1.1,1.3h-5.5c0.7-0.4,1.2-0.9,1.5-1.3c0.3-0.5,0.7-1.3,1.3-2.6l5.2-13
			c0.2-0.6,0.3-1,0.3-1.4c0-0.5-0.3-0.9-0.9-1.1h4.7l6.2,15.5c0.5,1.2,0.9,2,1.3,2.6C559.8,341.5,560.3,342,561,342.4z M552.9,333.1
			l-3-7.8l-3,7.8H552.9z"/>
		<path class="st1" d="M588.4,342.4h-5.7c0.8-0.4,1.2-1.1,1.2-2.2c0-0.4,0-0.9-0.1-1.7l-1.6-12.7l-6.7,17c-0.7-0.6-1.2-1.1-1.5-1.5
			c-0.3-0.4-0.6-1-0.9-1.8l-5.8-13.7l-1.7,13.1c-0.1,0.7-0.1,1.2-0.1,1.5c0,0.7,0.4,1.4,1.2,2h-4.9c0.8-0.8,1.4-2.1,1.6-3.9
			l1.7-12.5c0.1-0.8,0.2-1.3,0.2-1.5c0-0.6-0.3-1.1-1-1.6h5.2c0,0.3,0.1,0.6,0.3,1l5.7,13.4l4.8-12.3c0.4-1,0.6-1.7,0.6-2.1h5.1
			c-0.6,0.3-0.9,0.9-0.9,1.9c0,0.3,0,0.7,0.1,1.1l1.8,13.1c0.2,1,0.3,1.8,0.5,2.2C587.5,341.5,587.9,342,588.4,342.4z"/>
		<path class="st1" d="M604.4,338.5l-1.4,3.9h-12.4c0.6-0.3,1-0.9,1.2-1.7c0.1-0.4,0.1-1.1,0.1-2.2v-11.9c0-1.1,0-1.8-0.1-2.1
			c-0.2-0.8-0.6-1.3-1.2-1.7h9.9c0.4,0,0.8-0.1,1.1-0.2v3.5c-0.5-0.5-1.1-0.8-1.7-1c-0.4-0.1-1.1-0.2-2-0.2c-1.2,0-2.3,0.1-3.1,0.2
			v5.5h4c0.4,0,0.7-0.1,1-0.2v3.1c-0.4-0.5-1.2-0.8-2.3-0.8H595v7.1c1.3,0.2,2.5,0.3,3.7,0.3C601,340.2,602.9,339.6,604.4,338.5z
			 M602.7,318.9l-8.1,2.4l6.5-4.6L602.7,318.9z"/>
		<path class="st1" d="M623.6,342.4c-1.5,0.1-2.4,0.2-2.7,0.2c-0.8,0-1.6-0.2-2.2-0.6c-0.6-0.4-1.4-1.2-2.4-2.4
			c-1.9-2.2-3.6-4.7-5.2-7.4c3.3-0.6,4.9-2,4.9-4.2c0-1-0.3-1.8-1-2.4c-0.7-0.6-1.5-0.9-2.6-0.9c-0.6,0-1.3,0.1-2.1,0.2v13.6
			c0,1.1,0,1.8,0.1,2.1c0.2,0.8,0.6,1.3,1.2,1.7h-5.6c0.6-0.3,1-0.9,1.2-1.7c0.1-0.3,0.1-1,0.1-2.1v-11.9c0-1.1,0-1.8-0.1-2.1
			c-0.2-0.8-0.6-1.3-1.2-1.7h4.3c0.3,0,0.7,0,1.3,0c0.6,0,1,0,1.3,0c1.9,0,3.4,0.4,4.4,1.1c1.3,1,2,2.2,2,3.8c0,1.1-0.4,2.2-1.3,3.1
			c-0.9,0.9-2,1.6-3.5,1.9c2.2,3,4,5.1,5.3,6.5C621.2,340.8,622.5,341.8,623.6,342.4z"/>
		<path class="st1" d="M629.5,342.4h-5.6c0.6-0.3,1-0.9,1.2-1.7c0.1-0.3,0.1-1,0.1-2.1v-11.9c0-1.1,0-1.8-0.1-2.1
			c-0.2-0.8-0.6-1.3-1.2-1.7h5.6c-0.6,0.3-1,0.9-1.2,1.7c-0.1,0.3-0.1,1-0.1,2.1v11.9c0,1.1,0,1.8,0.1,2.1
			C628.5,341.5,628.9,342,629.5,342.4z"/>
		<path class="st1" d="M649.4,338.5L648,342c-1.4,0.6-3,0.9-4.6,0.9c-3.4,0-6.1-0.9-8.2-2.8c-2.1-1.9-3.1-4.3-3.1-7.4
			c0-3,1-5.4,3-7.4c2-1.9,4.5-2.9,7.5-2.9c1.5,0,3.3,0.3,5.3,0.8v3.4c-1.9-1.1-3.7-1.6-5.4-1.6c-2.1,0-3.8,0.7-5.1,2
			c-1.3,1.4-2,3.1-2,5.2c0,2.3,0.7,4.3,2.2,5.9c1.4,1.6,3.2,2.4,5.3,2.4C644.8,340.5,647,339.8,649.4,338.5z"/>
		<path class="st1" d="M671.3,342.4h-6.2c0.7-0.4,1.1-0.8,1.1-1.2c0-0.2-0.2-0.8-0.5-1.7L664,335h-7.5l-1.7,4.5
			c-0.2,0.6-0.3,1.1-0.3,1.5c0,0.5,0.4,0.9,1.1,1.3h-5.5c0.7-0.4,1.2-0.9,1.5-1.3c0.3-0.5,0.7-1.3,1.3-2.6l5.2-13
			c0.2-0.6,0.3-1,0.3-1.4c0-0.5-0.3-0.9-0.9-1.1h4.7l6.2,15.5c0.5,1.2,0.9,2,1.3,2.6C670.1,341.5,670.6,342,671.3,342.4z
			 M663.2,333.1l-3-7.8l-3,7.8H663.2z"/>
	</g>
	<g>
		<path class="st2" d="M335.6,187.8c-2.6,0-5-0.5-7.2-1.5c-20.5-9.5-35.4-20.7-47-35.2c-9.4-11.9-13.9-25-13.8-40.2
			c0.2-18.2,0.2-36.8,0.1-56.8h-0.1l0-12.8V19.8L335.4,0l68.2,19.8l0,34.2h0c0,2.9,0,5.7,0,8.5l0,1.6c0,3.5,0,6.9,0,10.4
			c0,3.4,0,6.9,0,10.3l0,1.3c-0.1,8.3-0.1,17,0.1,25.3c0.5,14.6-4,27.6-13.7,39.8c-11.4,14.4-26.2,25.5-46.5,34.9
			C341.1,187.2,338.3,187.8,335.6,187.8z"/>
		<path class="st3" d="M335.6,186.1c-2.3,0-4.5-0.5-6.5-1.4c-20.3-9.4-35-20.4-46.4-34.7c-9.2-11.5-13.6-24.3-13.4-39.1
			c0.2-18.7,0.2-37.8,0.1-58.5h-0.1l0-11.1V21l66.2-19.3L402,21.1l0,31.3h0c0,3.4,0,6.8,0,10.2v0.3c0,3.9,0,7.8,0,11.7
			c0,3.8,0,7.7-0.1,11.4c-0.1,8.4-0.1,17.1,0.1,25.5c0.5,14.2-3.9,26.8-13.3,38.7c-11.3,14.2-25.8,25.1-45.9,34.4
			C340.7,185.6,338.1,186.1,335.6,186.1z"/>
		<path class="st4" d="M335.6,184.6c-2.1,0-4.1-0.4-5.9-1.2c-20.1-9.3-34.6-20.2-45.9-34.3c-8.9-11.3-13.2-23.7-13.1-38.1
			c0.2-19.1,0.2-38.8,0.1-60.1h-0.1l0-9.6V22.2l64.7-18.9l65.1,18.9l0,28.6h0c0,4,0,7.9,0,11.7v0.3c0,3.9,0,7.8,0,11.7
			c0,3.8,0,7.7-0.1,11.4c-0.1,8.4-0.1,17.1,0.1,25.5c0.4,13.8-3.8,26.1-13,37.7c-11.1,14-25.5,24.8-45.3,34
			C340.2,184.1,337.9,184.6,335.6,184.6z"/>
		<path class="st5" d="M335.6,179.8c-1.5,0-2.9-0.3-4-0.8c-19.4-9-33.4-19.4-44.2-33c-8.2-10.3-12.1-21.8-12-35
			c0.2-20.5,0.2-41.8,0.1-64.9h0l0-4.8V25.8l60.1-17.5l60.5,17.6l0,20.2h0c0,5.5,0,11.1,0,16.5c0,4,0,8,0,11.9c0,3.8,0,7.7-0.1,11.4
			c-0.1,8.4-0.1,17.2,0.1,25.7c0.4,12.6-3.5,23.8-11.9,34.5c-10.6,13.4-24.5,23.8-43.7,32.7C339,179.4,337.3,179.8,335.6,179.8z"/>
		<path class="st3" d="M335.6,176c-1,0-1.8-0.2-2.5-0.5c-18.8-8.7-32.5-18.9-42.9-31.9c-7.6-9.6-11.3-20.3-11.2-32.5
			c0.2-21.7,0.2-44.2,0-68.8h0l0-1V28.7l56.4-16.5l56.8,16.5l0,13.4h0c0,6.8,0,13.7,0,20.4c0,4,0,8,0,11.9c0,3.8,0,7.6-0.1,11.4
			c-0.1,8.5-0.1,17.3,0.1,25.9c0.4,11.6-3.3,22-11.1,31.9c-10.3,12.9-23.7,23-42.3,31.6C337.9,175.7,336.7,176,335.6,176z"/>
		<path class="st6" d="M391.4,111.8c-0.4-12.4-0.1-24.8-0.1-37.3c0-11.1-0.1-22.2,0-33.3h0l0-11.7l-55.9-16.3l-55.5,16.2v11.8h0
			c0.2,23.2,0.2,46.5,0,69.7c-0.1,12.2,3.6,22.6,11,31.9c11.5,14.5,26.3,24.2,42.5,31.7c1.4,0.7,3.6,0.5,5.1-0.2
			c16-7.4,30.7-17,42-31.3C387.7,134,391.8,123.9,391.4,111.8z"/>
		<g>
			<g>
				<path class="st5" d="M295.8,55.9c0.9,1.5,1.8,3,3,4.2c1.5,1.5,3.2,2.9,4.7,4.3c1.1,1.1,2.3,2.1,3.4,3.2c2.1,2.2,3,5,3,8.3
					c0,9.5,0,19.1,0,28.7c0,8.9,2.4,17,7,24.1c2.9,4.4,6.5,7.9,11,10.2c5.7,2.9,11.4,2.7,16.9-0.8c5.5-3.4,9.8-8.4,12.6-14.9
					c1.9-4.3,3.2-8.8,3.7-13.6c0.2-1.6,0.3-3.2,0.3-4.7c0-9.4,0.1-18.9,0-28.3c0-4.3,1.4-7.7,4.3-10.3c1.2-1.1,2.5-2.2,3.8-3.2
					c2.4-2,4.5-4.2,6.1-7.2c0,0.2,0,0.3,0,0.4c0,15.2,0,30.5,0,45.7c0,4.1-0.9,8.1-2.1,11.9c-1.8,5.4-4.4,10.1-7.9,14.2
					c-6.2,7.3-13.7,11.7-22.5,13.5c-1.4,0.3-2.8,0.4-4.1,0.6c-0.1,0-0.2,0.1-0.3,0.1c-2,0-4,0-6,0c-0.1,0-0.2-0.1-0.3-0.1
					c-2.6-0.2-5.2-0.7-7.8-1.5c-9.7-3.1-17.6-9.1-23.2-18.8c-3-5.1-4.8-10.8-5.4-16.9c-0.1-0.7-0.2-1.3-0.2-2
					C295.8,87.3,295.8,71.6,295.8,55.9z"/>
			</g>
			<g>
				<g>
					<g>
						<g>
							<path class="st1" d="M326.9,93.9c-16.6-21.2,13-50,8.6-69.2l3.8,7.9C343.6,43.9,320.3,78.6,326.9,93.9z"/>
							<path class="st1" d="M335.5,103.6c-21.7-13.6,8.4-44.9,5.4-67l3.6,7.5C349.1,58.7,322.4,91.3,335.5,103.6z"/>
							<path class="st1" d="M346.1,47.2c1.8,4.4,0.3,9.8,0.3,9.8c0.2,4.9-11.3,27.5-11.6,36.4c-0.7,16.1,11,13.5,11,13.5
								c-17.3-6.1,2.7-27.7,4.4-47C350.6,55,344.8,44.1,346.1,47.2z"/>
						</g>
					</g>
				</g>
			</g>
		</g>
		<g>
			<path class="st1" d="M323,156.3l-0.4,1.2H319c0.2-0.1,0.3-0.3,0.4-0.5c0-0.1,0-0.3,0-0.7v-3.6c0-0.3,0-0.5,0-0.7
				c0-0.2-0.2-0.4-0.4-0.5h2.9c0.1,0,0.2,0,0.3-0.1v1.1c-0.2-0.2-0.3-0.3-0.5-0.3c-0.1,0-0.3-0.1-0.6-0.1c-0.4,0-0.7,0-0.9,0.1v1.7
				h1.2c0.1,0,0.2,0,0.3-0.1v1c-0.1-0.2-0.3-0.2-0.7-0.2h-0.8v2.2c0.4,0.1,0.7,0.1,1.1,0.1C322,156.8,322.6,156.7,323,156.3z"/>
			<path class="st1" d="M327.6,155.8c0,0.5-0.2,0.9-0.5,1.2c-0.4,0.4-1.1,0.7-1.8,0.7c-0.5,0-1-0.1-1.5-0.3l-0.3-1.1
				c0.6,0.5,1.2,0.7,1.9,0.7c0.4,0,0.7-0.1,0.9-0.3c0.3-0.2,0.4-0.4,0.4-0.7c0-0.3-0.1-0.5-0.3-0.6c-0.2-0.1-0.5-0.4-1.1-0.6
				c-0.6-0.3-1-0.5-1.2-0.7c-0.3-0.3-0.5-0.6-0.5-1c0-0.5,0.2-0.9,0.6-1.2c0.4-0.3,0.9-0.4,1.6-0.4c0.4,0,0.9,0.1,1.3,0.2v1
				c-0.4-0.4-0.9-0.6-1.4-0.6c-0.3,0-0.6,0.1-0.8,0.2c-0.2,0.2-0.3,0.4-0.3,0.6c0,0.2,0.1,0.4,0.3,0.6c0.2,0.2,0.5,0.4,1,0.6
				c0.6,0.3,1,0.5,1.3,0.7C327.4,155,327.6,155.4,327.6,155.8z"/>
			<path class="st1" d="M332.3,151.5l-0.3,1.1c-0.1-0.2-0.2-0.3-0.3-0.3c-0.1,0-0.3,0-0.5,0c0,0-0.1,0-0.2,0c-0.1,0-0.2,0-0.4,0
				h-0.1v4.2c0,0.3,0,0.5,0.1,0.7c0.1,0.1,0.2,0.3,0.4,0.4h-1.7c0.2-0.1,0.3-0.3,0.4-0.5c0-0.1,0-0.3,0-0.7v-4.1c-0.2,0-0.4,0-0.7,0
				c-0.3,0-0.5,0-0.6,0.1c-0.2,0-0.3,0.1-0.5,0.3l0.3-1.1c0.1,0,0.3,0.1,0.4,0.1h3.3c0.1,0,0.2,0,0.3,0
				C332.2,151.5,332.2,151.5,332.3,151.5z"/>
			<path class="st1" d="M333.4,157c0,0.2-0.1,0.3-0.2,0.4c-0.1,0.1-0.2,0.2-0.4,0.2c-0.2,0-0.3-0.1-0.4-0.2
				c-0.1-0.1-0.2-0.2-0.2-0.4c0-0.2,0.1-0.3,0.2-0.4c0.1-0.1,0.2-0.2,0.4-0.2c0.1,0,0.3,0.1,0.4,0.2
				C333.4,156.7,333.4,156.9,333.4,157z"/>
			<path class="st1" d="M336.9,157.5h-1.8c0.2-0.1,0.4-0.3,0.5-0.5c0-0.1,0.1-0.4,0.1-0.7v-3.6h-1c0.4-0.1,0.7-0.4,1.1-0.7
				c0.4-0.3,0.6-0.6,0.8-1v5.2c0,0.4,0.1,0.7,0.1,0.9C336.7,157.3,336.8,157.4,336.9,157.5z"/>
			<path class="st1" d="M342.6,153.8c0,0.6-0.2,1.2-0.5,1.7c-0.3,0.5-0.7,1-1.3,1.3c-0.6,0.4-1.3,0.7-2.2,0.8l0.4-0.6
				c0.6-0.2,1.2-0.5,1.6-0.9c0.7-0.7,1-1.4,1-2.3c0-0.5-0.1-1-0.4-1.4c-0.3-0.4-0.6-0.5-1.1-0.5c-0.4,0-0.7,0.1-0.9,0.4
				c-0.2,0.3-0.4,0.6-0.4,1c0,0.4,0.1,0.8,0.4,1.1c0.2,0.3,0.6,0.4,1,0.4c0.3,0,0.6-0.1,0.9-0.3l-0.6,0.8c-0.2,0.1-0.5,0.1-0.7,0.1
				c-0.5,0-1-0.2-1.3-0.5c-0.4-0.4-0.5-0.8-0.5-1.4c0-0.6,0.2-1.1,0.6-1.6c0.4-0.4,1-0.6,1.6-0.6c0.7,0,1.2,0.2,1.6,0.7
				C342.4,152.5,342.6,153.1,342.6,153.8z"/>
			<path class="st1" d="M347.9,156.4l-0.5,1.1h-4l2.3-3.4c0.3-0.5,0.5-0.9,0.5-1.1c0-0.3-0.1-0.5-0.3-0.6c-0.2-0.2-0.4-0.2-0.7-0.2
				c-0.4,0-0.9,0.2-1.5,0.6l0.5-1.1c0.4-0.1,0.8-0.2,1.1-0.2c0.5,0,1,0.1,1.3,0.4c0.3,0.3,0.5,0.6,0.5,1c0,0.3-0.1,0.7-0.4,1.1
				c-0.2,0.3-0.3,0.6-0.5,0.8l-1.5,2.1c0.5,0.1,0.9,0.1,1.2,0.1C346.8,156.8,347.4,156.7,347.9,156.4z"/>
			<path class="st1" d="M352.6,151.5l-1.2,2.9c-0.7,1.6-1,2.5-1,2.7c0,0.1,0.1,0.2,0.2,0.4h-1.5l2.2-5.2c-0.4-0.1-0.8-0.1-1.3-0.1
				c-0.7,0-1.2,0.2-1.7,0.5l0.4-1.1H352.6z"/>
		</g>
	</g>
</g>
</svg>
